<svg xmlns="http://www.w3.org/2000/svg" viewBox="0 0 308.83 308.98"><defs><style>.cls-1{fill:#00c;}.cls-2{fill:#0101cd;}.cls-3{fill:#0202ce;}.cls-4{fill:#0303cf;}.cls-5{fill:#0404d0;}.cls-6{fill:#0505d1;}.cls-7{fill:#0606d2;}.cls-8{fill:#0707d3;}.cls-9{fill:#0808d4;}.cls-10{fill:#0909d5;}.cls-11{fill:#0a0ad6;}.cls-12{fill:#0b0bd7;}.cls-13{fill:#0c0cd8;}.cls-14{fill:#0d0dd9;}.cls-15{fill:#0e0eda;}.cls-16{fill:#0f0fdb;}.cls-17{fill:#1010dc;}.cls-18{fill:#11d;}.cls-19{fill:#1212de;}.cls-20{fill:#1313df;}.cls-21{fill:#1414e0;}.cls-22{fill:#1515e1;}.cls-23{fill:#1616e2;}.cls-24{fill:#1717e3;}.cls-25{fill:#1818e4;}.cls-26{fill:#1919e5;}.cls-27{fill:#1a1ae6;}.cls-28{fill:#1b1be7;}.cls-29{fill:#1c1ce8;}.cls-30{fill:#1d1de9;}.cls-31{fill:#1e1eea;}.cls-32{fill:#1f1feb;}.cls-33{fill:#2020ec;}.cls-34{fill:#2121ed;}.cls-35{fill:#22e;}.cls-36{fill:#2323ef;}.cls-37{fill:#2424f0;}.cls-38{fill:#2525f1;}.cls-39{fill:#2626f2;}.cls-40{fill:#2727f3;}.cls-41{fill:#2828f4;}.cls-42{fill:#2929f5;}.cls-43{fill:#2a2af6;}.cls-44{fill:#2b2bf7;}.cls-45{fill:#2c2cf8;}.cls-46{fill:#2d2df9;}.cls-47{fill:#2e2efa;}.cls-48{fill:#2f2ffb;}.cls-49{fill:#3030fc;}.cls-50{fill:#3131fd;}.cls-51{fill:#3232fe;}.cls-52{fill:#33f;}</style></defs><title>Asset 7</title><g id="Layer_2" data-name="Layer 2"><g id="Layer_2-2" data-name="Layer 2"><path class="cls-1" d="M1.06,295.29c-2-55.36-.58-78.54-.42-143a13.22,13.22,0,0,1,10.63-13C112.18,119.51,133.66,44.92,139,13.51c1.43-8.31,10.6-13.41,19-13.46,28.19-.17,112.57,0,141,2,5.78.41,9.21,5.09,9.61,10.87,3.48,50.75-50.1,271.42-292,296A14.22,14.22,0,0,1,1.06,295.29Z"/><path class="cls-2" d="M1.57,294.92c-2-55.2-.58-78.32-.42-142.59a13.18,13.18,0,0,1,10.6-12.92C112.33,119.66,133.75,45.28,139.12,14c1.42-8.29,10.56-13.37,19-13.42,28.1-.17,112.22,0,140.54,2,5.76.41,9.18,5.08,9.58,10.84C311.68,64,258.27,284,17.17,308.51A14.18,14.18,0,0,1,1.57,294.92Z"/><path class="cls-3" d="M2.08,294.56c-2-55-.57-78.09-.42-142.18A13.14,13.14,0,0,1,12.22,139.5c100.27-19.7,121.61-93.87,127-125.1C140.61,6.13,149.72,1.07,158.1,1,186.11.85,270,1,298.2,3c5.74.41,9.16,5.06,9.55,10.81C311.2,64.27,258,283.68,17.63,308.11A14.13,14.13,0,0,1,2.08,294.56Z"/><path class="cls-4" d="M2.59,294.2c-2-54.89-.57-77.87-.42-141.77A13.1,13.1,0,0,1,12.7,139.59C112.65,119.94,133.93,46,139.26,14.84c1.41-8.24,10.5-13.29,18.85-13.34,27.92-.17,111.51,0,139.65,2,5.72.4,9.13,5,9.52,10.78,3.44,50.31-49.62,269.09-289.19,293.45A14.09,14.09,0,0,1,2.59,294.2Z"/><path class="cls-5" d="M3.1,293.84c-2-54.73-.57-77.64-.42-141.36a13.06,13.06,0,0,1,10.5-12.81C112.81,120.08,134,46.34,139.33,15.29,140.74,7.07,149.8,2,158.13,2,186,1.82,269.28,2,297.33,4c5.71.4,9.1,5,9.49,10.75C310.25,64.87,257.36,283,18.55,307.31A14,14,0,0,1,3.1,293.84Z"/><path class="cls-6" d="M3.61,293.48c-2-54.57-.57-77.42-.42-141a13,13,0,0,1,10.46-12.77C113,120.22,134.11,46.7,139.41,15.73c1.4-8.2,10.43-13.21,18.73-13.26,27.74-.17,110.79,0,138.76,2,5.69.4,9.07,5,9.46,10.72C309.78,65.17,257,282.69,19,306.9A14,14,0,0,1,3.61,293.48Z"/><path class="cls-7" d="M4.12,293.12c-2-54.41-.57-77.19-.41-140.55a13,13,0,0,1,10.43-12.73c99-19.48,120.06-92.79,125.35-123.66C140.88,8,149.88,3,158.15,3c27.65-.17,110.44,0,138.31,2,5.67.4,9,5,9.43,10.69C309.3,65.47,256.74,282.36,19.47,306.5A14,14,0,0,1,4.12,293.12Z"/><path class="cls-8" d="M4.63,292.76c-2-54.25-.57-77-.41-140.14a13,13,0,0,1,10.4-12.69c98.67-19.42,119.68-92.52,124.94-123.3,1.39-8.15,10.36-13.14,18.61-13.19,27.56-.16,110.08,0,137.87,2,5.65.4,9,5,9.4,10.66,3.4,49.73-49,266-285.49,290.06A13.92,13.92,0,0,1,4.63,292.76Z"/><path class="cls-9" d="M5.14,292.4c-2-54.1-.56-76.74-.41-139.73A12.91,12.91,0,0,1,15.09,140c98.35-19.36,119.29-92.25,124.54-122.94C141,8.94,150,4,158.18,3.92c27.47-.16,109.72,0,137.42,1.95,5.63.4,9,5,9.37,10.62C308.35,66.08,256.13,281.7,20.39,305.7A13.87,13.87,0,0,1,5.14,292.4Z"/><path class="cls-10" d="M5.64,292c-2-53.94-.56-76.52-.41-139.32A12.87,12.87,0,0,1,15.56,140.1c98-19.31,118.9-92,124.13-122.58C141.08,9.41,150,4.45,158.19,4.4c27.38-.16,109.37,0,137,1.94,5.61.4,9,5,9.34,10.59,3.38,49.44-48.67,264.43-283.65,288.37A13.83,13.83,0,0,1,5.64,292Z"/><path class="cls-11" d="M6.15,291.67c-1.95-53.78-.56-76.3-.41-138.91A12.83,12.83,0,0,1,16,140.18C113.75,120.93,134.56,48.47,139.77,18c1.38-8.08,10.26-13,18.43-13.07,27.29-.16,109,0,136.53,1.94,5.6.4,8.92,4.95,9.31,10.56C307.4,66.68,255.52,281,21.31,304.9A13.79,13.79,0,0,1,6.15,291.67Z"/><path class="cls-12" d="M6.66,291.31c-1.94-53.62-.56-76.07-.41-138.5a12.79,12.79,0,0,1,10.26-12.55C113.91,121.07,134.64,48.83,139.84,18.4c1.38-8.05,10.23-13,18.37-13,27.2-.16,108.65,0,136.08,1.93,5.58.39,8.89,4.93,9.27,10.53C306.92,67,255.21,280.71,21.77,304.5A13.74,13.74,0,0,1,6.66,291.31Z"/><path class="cls-13" d="M7.17,291c-1.93-53.46-.56-75.85-.41-138.09A12.75,12.75,0,0,1,17,140.35c97.07-19.14,117.74-91.17,122.92-121.5,1.37-8,10.2-12.95,18.31-13,27.11-.16,108.3,0,135.63,1.92,5.56.39,8.86,4.92,9.24,10.5,3.34,49-48.2,262.1-280.87,285.82A13.7,13.7,0,0,1,7.17,291Z"/><path class="cls-14" d="M7.68,290.59c-1.93-53.3-.55-75.62-.41-137.68a12.72,12.72,0,0,1,10.19-12.47C114.22,121.36,134.82,49.54,140,19.3c1.37-8,10.16-12.91,18.25-13,27-.16,107.94,0,135.19,1.92,5.54.39,8.83,4.9,9.21,10.47,3.33,48.86-48,261.33-279.95,285A13.66,13.66,0,0,1,7.68,290.59Z"/><path class="cls-15" d="M8.19,290.23c-1.92-53.14-.55-75.4-.4-137.27a12.68,12.68,0,0,1,10.16-12.43c96.43-19,117-90.63,122.11-120.78,1.36-8,10.13-12.87,18.19-12.92,26.94-.16,107.59,0,134.74,1.91,5.52.39,8.81,4.89,9.18,10.44,3.32,48.71-47.88,260.55-279,284.13A13.61,13.61,0,0,1,8.19,290.23Z"/><path class="cls-16" d="M8.7,289.87c-1.91-53-.55-75.17-.4-136.86a12.64,12.64,0,0,1,10.13-12.4c96.12-19,116.58-90.36,121.71-120.42,1.36-8,10.09-12.83,18.13-12.88,26.85-.16,107.23,0,134.3,1.91,5.51.39,8.78,4.87,9.15,10.41C305,68.19,254,279.4,23.61,302.9A13.57,13.57,0,0,1,8.7,289.87Z"/><path class="cls-17" d="M9.21,289.51c-1.91-52.83-.55-74.95-.4-136.45A12.6,12.6,0,0,1,18.9,140.69c95.8-18.91,116.19-90.09,121.3-120.06,1.35-7.93,10.06-12.79,18.07-12.84,26.76-.16,106.87,0,133.85,1.9,5.49.39,8.75,4.86,9.12,10.38,3.3,48.42-47.56,259-277.18,282.44A13.52,13.52,0,0,1,9.21,289.51Z"/><path class="cls-18" d="M9.72,289.15c-1.9-52.67-.55-74.72-.4-136a12.56,12.56,0,0,1,10.06-12.32c95.48-18.85,115.8-89.82,120.9-119.7,1.35-7.91,10-12.75,18-12.8,26.67-.16,106.52,0,133.4,1.9,5.47.39,8.72,4.85,9.09,10.34,3.29,48.28-47.4,258.22-276.25,281.59A13.48,13.48,0,0,1,9.72,289.15Z"/><path class="cls-19" d="M10.23,288.79c-1.9-52.51-.55-74.5-.4-135.64a12.52,12.52,0,0,1,10-12.29C115,122.07,135.27,51.32,140.35,21.52c1.34-7.89,10-12.72,17.95-12.76,26.58-.16,106.16,0,133,1.89,5.45.39,8.69,4.83,9.06,10.31C303.59,69.1,253.07,278.41,25,301.7A13.44,13.44,0,0,1,10.23,288.79Z"/><path class="cls-20" d="M10.74,288.42c-1.89-52.35-.54-74.27-.4-135.23a12.48,12.48,0,0,1,10-12.25c94.84-18.74,115-89.28,120.09-119,1.34-7.86,10-12.68,17.89-12.72,26.49-.16,105.8,0,132.51,1.88,5.43.39,8.66,4.82,9,10.28,3.27,48-47.09,256.67-274.4,279.89A13.39,13.39,0,0,1,10.74,288.42Z"/><path class="cls-21" d="M11.25,288.06c-1.88-52.19-.54-74-.4-134.82a12.44,12.44,0,0,1,10-12.21c94.52-18.68,114.64-89,119.69-118.62,1.34-7.84,9.93-12.64,17.83-12.69,26.4-.16,105.45,0,132.06,1.88,5.41.38,8.63,4.8,9,10.25,3.26,47.84-46.93,255.89-273.48,279A13.35,13.35,0,0,1,11.25,288.06Z"/><path class="cls-22" d="M11.76,287.7c-1.88-52-.54-73.82-.39-134.41a12.4,12.4,0,0,1,9.92-12.18c94.2-18.63,114.25-88.74,119.28-118.26,1.33-7.81,9.89-12.6,17.77-12.65,26.31-.16,105.09,0,131.62,1.87,5.4.38,8.6,4.79,9,10.22C302.17,70,252.15,277.42,26.37,300.5A13.31,13.31,0,0,1,11.76,287.7Z"/><path class="cls-23" d="M12.26,287.34c-1.87-51.88-.54-73.6-.39-134a12.37,12.37,0,0,1,9.89-12.14c93.88-18.57,113.87-88.47,118.88-117.9,1.33-7.79,9.86-12.56,17.71-12.61,26.22-.16,104.73,0,131.17,1.87,5.38.38,8.57,4.77,8.94,10.19C301.69,70.3,251.85,277.09,26.83,300.1A13.26,13.26,0,0,1,12.26,287.34Z"/><path class="cls-24" d="M12.77,287c-1.86-51.72-.54-73.37-.39-133.59a12.33,12.33,0,0,1,9.86-12.1c93.56-18.51,113.48-88.2,118.47-117.54C142,16,150.54,11.22,158.36,11.18c26.13-.16,104.38,0,130.73,1.86,5.36.38,8.54,4.76,8.91,10.16C301.22,70.6,251.54,276.76,27.29,299.7A13.22,13.22,0,0,1,12.77,287Z"/><path class="cls-25" d="M13.28,286.62c-1.86-51.56-.53-73.15-.39-133.18a12.29,12.29,0,0,1,9.82-12.06C116,122.92,135.81,53.45,140.78,24.19c1.32-7.74,9.79-12.49,17.59-12.53,26-.16,104,0,130.28,1.86,5.34.38,8.51,4.74,8.88,10.13,3.21,47.26-46.29,252.78-269.78,275.66A13.18,13.18,0,0,1,13.28,286.62Z"/><path class="cls-26" d="M13.79,286.26c-1.85-51.4-.53-72.92-.39-132.77a12.25,12.25,0,0,1,9.79-12c92.92-18.4,112.7-87.66,117.66-116.82,1.31-7.72,9.76-12.45,17.53-12.49,26-.16,103.67,0,129.83,1.85,5.32.38,8.48,4.73,8.85,10.1,3.2,47.12-46.13,252-268.86,274.81A13.13,13.13,0,0,1,13.79,286.26Z"/><path class="cls-26" d="M14.3,285.9c-1.84-51.24-.53-72.7-.39-132.36a12.21,12.21,0,0,1,9.76-12C116.27,123.2,136,54.16,140.93,25.08c1.31-7.7,9.73-12.41,17.47-12.45,25.87-.16,103.31,0,129.39,1.84,5.3.38,8.46,4.71,8.82,10.06,3.19,47-46,251.23-267.94,274A13.09,13.09,0,0,1,14.3,285.9Z"/><path class="cls-27" d="M14.81,285.54c-1.84-51.09-.53-72.47-.39-132a12.17,12.17,0,0,1,9.72-12C116.43,123.35,136.08,54.52,141,25.53c1.3-7.67,9.69-12.37,17.41-12.42,25.78-.16,103,0,128.94,1.84,5.29.38,8.43,4.7,8.79,10,3.18,46.83-45.82,250.45-267,273.12A13,13,0,0,1,14.81,285.54Z"/><path class="cls-28" d="M15.32,285.17c-1.83-50.93-.53-72.25-.39-131.54a12.13,12.13,0,0,1,9.69-11.92c92-18.23,111.54-86.84,116.45-115.74,1.3-7.65,9.66-12.33,17.35-12.38,25.69-.15,102.6,0,128.49,1.83,5.27.37,8.4,4.68,8.76,10C298.84,72.11,250,275.11,29.58,297.7A13,13,0,0,1,15.32,285.17Z"/><path class="cls-29" d="M15.83,284.81c-1.83-50.77-.53-72-.38-131.13A12.09,12.09,0,0,1,25.1,141.8c91.64-18.17,111.15-86.57,116-115.38,1.29-7.62,9.63-12.29,17.29-12.34,25.6-.15,102.24,0,128,1.83,5.25.37,8.37,4.67,8.73,10C298.36,72.41,249.71,274.78,30,297.3A13,13,0,0,1,15.83,284.81Z"/><path class="cls-30" d="M16.34,284.45c-1.82-50.61-.52-71.8-.38-130.72a12.06,12.06,0,0,1,9.62-11.84c91.32-18.11,110.77-86.3,115.64-115,1.29-7.6,9.59-12.25,17.23-12.3,25.51-.15,101.88,0,127.6,1.82,5.23.37,8.34,4.66,8.7,9.94C297.89,72.72,249.4,274.45,30.5,296.9A12.91,12.91,0,0,1,16.34,284.45Z"/><path class="cls-31" d="M16.85,284.09c-1.81-50.45-.52-71.58-.38-130.32A12,12,0,0,1,26.05,142c91-18.06,110.38-86,115.24-114.66,1.29-7.58,9.56-12.22,17.17-12.26,25.42-.15,101.53,0,127.15,1.82,5.21.37,8.31,4.64,8.67,9.91C297.41,73,249.1,274.12,31,296.5A12.87,12.87,0,0,1,16.85,284.09Z"/><path class="cls-32" d="M17.36,283.73c-1.81-50.29-.52-71.35-.38-129.91a12,12,0,0,1,9.55-11.77c90.69-18,110-85.76,114.83-114.3,1.28-7.55,9.52-12.18,17.11-12.22,25.33-.15,101.17,0,126.71,1.81,5.19.37,8.28,4.63,8.64,9.88,3.12,46.1-45,246.57-262.39,268.88A12.83,12.83,0,0,1,17.36,283.73Z"/><path class="cls-33" d="M17.87,283.37c-1.8-50.13-.52-71.13-.38-129.5A11.94,11.94,0,0,1,27,142.14C117.37,124.2,136.61,56.65,141.44,28.2c1.28-7.53,9.49-12.14,17-12.19,25.24-.15,100.82,0,126.26,1.81,5.18.37,8.25,4.61,8.61,9.85,3.11,46-44.87,245.79-261.47,268A12.78,12.78,0,0,1,17.87,283.37Z"/><path class="cls-34" d="M18.37,283c-1.79-50-.52-70.9-.38-129.09a11.9,11.9,0,0,1,9.49-11.69c90-17.89,109.22-85.22,114-113.58,1.27-7.51,9.46-12.1,17-12.15,25.15-.15,100.46,0,125.82,1.8,5.16.37,8.22,4.6,8.58,9.82,3.1,45.81-44.71,245-260.54,267.19A12.74,12.74,0,0,1,18.37,283Z"/><path class="cls-35" d="M18.88,282.65C17.1,232.83,18.37,212,18.51,154A11.86,11.86,0,0,1,28,142.31c89.73-17.83,108.83-85,113.62-113.22C142.85,21.61,151,17,158.51,17c25.06-.15,100.1,0,125.37,1.79,5.14.37,8.19,4.58,8.54,9.78C295.51,74.23,247.87,272.8,32.8,294.9A12.7,12.7,0,0,1,18.88,282.65Z"/><path class="cls-36" d="M19.39,282.29C17.61,232.63,18.88,211.83,19,154a11.82,11.82,0,0,1,9.42-11.62c89.41-17.77,108.44-84.68,113.21-112.86,1.26-7.46,9.39-12,16.86-12.07,25-.15,99.75,0,124.92,1.79,5.12.37,8.16,4.57,8.51,9.75C295,74.53,247.57,272.47,33.26,294.5A12.65,12.65,0,0,1,19.39,282.29Z"/><path class="cls-37" d="M19.9,281.92c-1.77-49.5-.51-70.23-.37-127.86a11.78,11.78,0,0,1,9.39-11.58C118,124.76,137,58.07,141.73,30c1.26-7.43,9.36-12,16.8-12,24.88-.15,99.39,0,124.48,1.78,5.1.36,8.13,4.55,8.48,9.72,3.07,45.37-44.23,242.69-257.77,264.65A12.61,12.61,0,0,1,19.9,281.92Z"/><path class="cls-38" d="M20.41,281.56c-1.77-49.34-.51-70-.37-127.45a11.75,11.75,0,0,1,9.35-11.55C118.16,124.91,137.06,58.42,141.8,30.43c1.25-7.41,9.32-11.95,16.74-12,24.8-.15,99,0,124,1.78,5.08.36,8.11,4.54,8.45,9.69C294.08,75.13,247,271.81,34.18,293.7A12.57,12.57,0,0,1,20.41,281.56Z"/><path class="cls-39" d="M20.92,281.2c-1.76-49.18-.51-69.78-.37-127a11.71,11.71,0,0,1,9.32-11.51c88.45-17.6,107.28-83.87,112-111.78,1.25-7.39,9.29-11.91,16.68-12,24.71-.15,98.68,0,123.58,1.77,5.07.36,8.08,4.52,8.42,9.66,3,45.08-43.91,241.13-255.92,263A12.52,12.52,0,0,1,20.92,281.2Z"/><path class="cls-40" d="M21.43,280.84c-1.76-49-.51-69.55-.37-126.63a11.67,11.67,0,0,1,9.29-11.47c88.13-17.55,106.89-83.6,111.6-111.42,1.24-7.36,9.26-11.87,16.62-11.92,24.62-.15,98.32,0,123.14,1.77,5,.36,8,4.51,8.39,9.63,3,44.94-43.76,240.36-255,262.11A12.48,12.48,0,0,1,21.43,280.84Z"/><path class="cls-41" d="M21.94,280.48c-1.75-48.87-.5-69.33-.37-126.22a11.63,11.63,0,0,1,9.25-11.43C118.63,125.33,137.33,59.49,142,31.76c1.24-7.34,9.22-11.83,16.56-11.88,24.53-.15,98,0,122.69,1.76,5,.36,8,4.5,8.36,9.6C292.66,76,246,270.82,35.56,292.5A12.44,12.44,0,0,1,21.94,280.48Z"/><path class="cls-42" d="M22.45,280.12c-1.74-48.71-.5-69.1-.37-125.81a11.59,11.59,0,0,1,9.22-11.4c87.49-17.43,106.12-83.06,110.79-110.7,1.24-7.32,9.19-11.79,16.5-11.84,24.44-.15,97.61,0,122.25,1.75,5,.36,8,4.48,8.33,9.57,3,44.65-43.44,238.8-253.15,260.41A12.39,12.39,0,0,1,22.45,280.12Z"/><path class="cls-43" d="M23,279.76c-1.74-48.55-.5-68.88-.36-125.4A11.55,11.55,0,0,1,31.78,143C118.95,125.62,137.51,60.2,142.16,32.65c1.23-7.29,9.16-11.76,16.44-11.8,24.35-.15,97.25,0,121.8,1.75,5,.36,8,4.47,8.3,9.54,3,44.5-43.28,238-252.22,259.57A12.35,12.35,0,0,1,23,279.76Z"/><path class="cls-44" d="M23.47,279.4c-1.73-48.39-.5-68.65-.36-125a11.51,11.51,0,0,1,9.15-11.32c86.85-17.32,105.34-82.52,110-110,1.23-7.27,9.12-11.72,16.38-11.76,24.26-.15,96.9,0,121.35,1.74,5,.36,7.93,4.45,8.27,9.5,3,44.36-43.12,237.25-251.3,258.72A12.31,12.31,0,0,1,23.47,279.4Z"/><path class="cls-45" d="M24,279c-1.72-48.23-.5-68.43-.36-124.59a11.47,11.47,0,0,1,9.12-11.29c86.53-17.26,105-82.25,109.57-109.62,1.22-7.24,9.09-11.68,16.32-11.72,24.17-.15,96.54,0,120.91,1.74,5,.36,7.9,4.44,8.24,9.47,3,44.21-43,236.47-250.38,257.87A12.26,12.26,0,0,1,24,279Z"/><path class="cls-46" d="M24.49,278.67c-1.72-48.07-.49-68.2-.36-124.18a11.43,11.43,0,0,1,9.08-11.25C119.42,126,137.78,61.27,142.38,34c1.22-7.22,9.06-11.64,16.26-11.68,24.08-.15,96.18,0,120.46,1.73,4.94.35,7.87,4.42,8.21,9.44,3,44.07-42.8,235.69-249.45,257A12.22,12.22,0,0,1,24.49,278.67Z"/><path class="cls-47" d="M25,278.31c-1.71-47.92-.49-68-.36-123.77a11.4,11.4,0,0,1,9-11.21c85.89-17.15,104.18-81.71,108.77-108.9,1.21-7.2,9-11.6,16.2-11.65,24-.15,95.83,0,120,1.73,4.92.35,7.84,4.41,8.18,9.41,3,43.92-42.65,234.92-248.53,256.18A12.18,12.18,0,0,1,25,278.31Z"/><path class="cls-48" d="M25.5,278c-1.7-47.76-.49-67.75-.36-123.36a11.36,11.36,0,0,1,9-11.17C119.74,126.33,138,62,142.52,34.88c1.21-7.17,9-11.56,16.14-11.61,23.9-.14,95.47,0,119.57,1.72,4.9.35,7.81,4.39,8.15,9.38,2.95,43.78-42.49,234.14-247.6,255.33A12.13,12.13,0,0,1,25.5,278Z"/><path class="cls-49" d="M26,277.59c-1.7-47.6-.49-67.53-.36-122.95a11.32,11.32,0,0,1,9-11.14c85.26-17,103.41-81.17,108-108.18,1.2-7.15,9-11.53,16.08-11.57,23.81-.14,95.11,0,119.12,1.71,4.88.35,7.78,4.38,8.12,9.35,2.94,43.63-42.33,233.36-246.68,254.48A12.09,12.09,0,0,1,26,277.59Z"/><path class="cls-50" d="M26.52,277.23c-1.69-47.44-.49-67.3-.36-122.54a11.28,11.28,0,0,1,8.95-11.1c84.94-17,103-80.9,107.55-107.82,1.2-7.12,8.92-11.49,16-11.53,23.72-.14,94.76,0,118.68,1.71,4.86.35,7.76,4.36,8.09,9.32C288.38,78.75,243.28,267.85,39.7,288.9A12,12,0,0,1,26.52,277.23Z"/><path class="cls-51" d="M27,276.87c-1.69-47.28-.49-67.08-.35-122.13a11.24,11.24,0,0,1,8.92-11.06C120.21,126.75,138.22,63,142.74,36.22c1.2-7.1,8.89-11.45,16-11.49,23.64-.14,94.4,0,118.23,1.7,4.85.35,7.73,4.35,8.06,9.29C287.9,79.05,243,267.52,40.16,288.5A12,12,0,0,1,27,276.87Z"/><path class="cls-52" d="M27.54,276.51c-1.68-47.12-.48-66.85-.35-121.72a11.2,11.2,0,0,1,8.88-11c84.3-16.87,102.24-80.36,106.74-107.1,1.19-7.08,8.85-11.41,15.9-11.45,23.55-.14,94,0,117.78,1.7,4.83.35,7.7,4.34,8,9.26,2.9,43.2-41.85,231-243.91,251.94A12,12,0,0,1,27.54,276.51Z"/></g></g></svg>