<svg xmlns="http://www.w3.org/2000/svg" viewBox="0 0 308.83 308.98"><defs><style>.cls-1{fill:#060;}.cls-2{fill:#006700;}.cls-3{fill:#006800;}.cls-4{fill:#006900;}.cls-5{fill:#006a00;}.cls-6{fill:#006b00;}.cls-7{fill:#006c00;}.cls-8{fill:#006d00;}.cls-9{fill:#006e00;}.cls-10{fill:#006f00;}.cls-11{fill:#007000;}.cls-12{fill:#007100;}.cls-13{fill:#007200;}.cls-14{fill:#007300;}.cls-15{fill:#007400;}.cls-16{fill:#007500;}.cls-17{fill:#007600;}.cls-18{fill:#070;}.cls-19{fill:#007800;}.cls-20{fill:#007900;}.cls-21{fill:#007a00;}.cls-22{fill:#007b00;}.cls-23{fill:#007c00;}.cls-24{fill:#007d00;}.cls-25{fill:#007e00;}.cls-26{fill:#007f00;}.cls-27{fill:green;}.cls-28{fill:#008100;}.cls-29{fill:#008200;}.cls-30{fill:#008300;}.cls-31{fill:#008400;}.cls-32{fill:#008500;}.cls-33{fill:#008600;}.cls-34{fill:#008700;}.cls-35{fill:#080;}.cls-36{fill:#008900;}.cls-37{fill:#008a00;}.cls-38{fill:#008b00;}.cls-39{fill:#008c00;}.cls-40{fill:#008d00;}.cls-41{fill:#008e00;}.cls-42{fill:#008f00;}.cls-43{fill:#009000;}.cls-44{fill:#009100;}.cls-45{fill:#009200;}.cls-46{fill:#009300;}.cls-47{fill:#009400;}.cls-48{fill:#009500;}.cls-49{fill:#009600;}.cls-50{fill:#009700;}.cls-51{fill:#009800;}.cls-52{fill:#090;}.cls-53{fill:#009a00;}.cls-54{fill:#009b00;}.cls-55{fill:#009c00;}.cls-56{fill:#009d00;}.cls-57{fill:#009e00;}.cls-58{fill:#009f00;}.cls-59{fill:#00a000;}.cls-60{fill:#00a100;}.cls-61{fill:#00a200;}.cls-62{fill:#00a300;}.cls-63{fill:#00a400;}.cls-64{fill:#00a500;}.cls-65{fill:#00a600;}.cls-66{fill:#00a700;}.cls-67{fill:#00a800;}.cls-68{fill:#00a900;}.cls-69{fill:#0a0;}.cls-70{fill:#00ab00;}.cls-71{fill:#00ac00;}.cls-72{fill:#00ad00;}.cls-73{fill:#00ae00;}.cls-74{fill:#00af00;}.cls-75{fill:#00b000;}.cls-76{fill:#00b100;}.cls-77{fill:#00b200;}.cls-78{fill:#00b300;}</style></defs><title>Asset 9</title><g id="Layer_2" data-name="Layer 2"><g id="Layer_2-2" data-name="Layer 2"><path class="cls-1" d="M307.77,13.69c2,55.36.58,78.54.42,143a13.22,13.22,0,0,1-10.63,13c-100.91,19.82-122.39,94.41-127.77,125.82-1.43,8.31-10.6,13.41-19,13.46-28.19.17-112.57,0-141-2C4,306.53.55,301.84.16,296.06c-3.48-50.75,50.1-271.42,292-296A14.22,14.22,0,0,1,307.77,13.69Z"/><path class="cls-2" d="M307.43,13.94c2,55.26.58,78.39.42,142.73a13.19,13.19,0,0,1-10.61,12.93c-100.69,19.78-122.13,94.23-127.5,125.58-1.42,8.3-10.58,13.38-19,13.43-28.13.17-112.34,0-140.69-2-5.77-.41-9.19-5.08-9.59-10.85C-3,245.11,50.46,24.86,291.81.34A14.19,14.19,0,0,1,307.43,13.94Z"/><path class="cls-3" d="M307.09,14.18c2,55.15.58,78.24.42,142.46a13.17,13.17,0,0,1-10.59,12.9c-100.48,19.74-121.87,94-127.23,125.34-1.42,8.28-10.55,13.35-19,13.4-28.07.17-112.1,0-140.39-2-5.76-.41-9.17-5.07-9.57-10.83C-2.69,244.91,50.66,25.08,291.51.61A14.16,14.16,0,0,1,307.09,14.18Z"/><path class="cls-4" d="M306.75,14.42c2,55,.57,78.09.42,142.18a13.14,13.14,0,0,1-10.56,12.88c-100.27,19.7-121.61,93.87-127,125.1-1.42,8.27-10.53,13.33-18.91,13.38-28,.17-111.86,0-140.1-2-5.74-.41-9.16-5.06-9.55-10.81C-2.37,244.71,50.87,25.3,291.2.87A14.13,14.13,0,0,1,306.75,14.42Z"/><path class="cls-5" d="M306.41,14.66c2,54.94.57,77.94.42,141.91a13.12,13.12,0,0,1-10.54,12.86c-100.05,19.66-121.36,93.69-126.7,124.86-1.41,8.25-10.51,13.3-18.87,13.35-27.95.17-111.62,0-139.8-2-5.73-.4-9.14-5.05-9.53-10.79C-2.05,244.51,51.07,25.52,290.89,1.14A14.11,14.11,0,0,1,306.41,14.66Z"/><path class="cls-6" d="M306.07,14.9c2,54.83.57,77.79.42,141.64A13.09,13.09,0,0,1,296,169.37C196.13,189,174.87,262.87,169.55,294c-1.41,8.24-10.49,13.28-18.83,13.33-27.89.17-111.39,0-139.5-2-5.72-.4-9.12-5-9.51-10.77C-1.73,244.31,51.27,25.74,290.59,1.41A14.08,14.08,0,0,1,306.07,14.9Z"/><path class="cls-7" d="M305.73,15.14c2,54.73.57,77.64.42,141.36a13.06,13.06,0,0,1-10.5,12.81C196,188.9,174.81,262.64,169.5,293.69c-1.41,8.22-10.46,13.25-18.79,13.3-27.83.17-111.15,0-139.2-2-5.71-.4-9.1-5-9.49-10.75C-1.42,244.11,51.48,26,290.28,1.67A14,14,0,0,1,305.73,15.14Z"/><path class="cls-8" d="M305.39,15.38c2,54.62.57,77.49.42,141.09a13,13,0,0,1-10.47,12.78C195.92,188.8,174.76,262.4,169.45,293.4c-1.4,8.2-10.44,13.23-18.75,13.28-27.77.17-110.91,0-138.91-2-5.69-.4-9.08-5-9.47-10.73C-1.1,243.91,51.68,26.18,290,1.94A14,14,0,0,1,305.39,15.38Z"/><path class="cls-9" d="M305.06,15.62c2,54.52.57,77.34.42,140.82A13,13,0,0,1,295,169.2c-99.2,19.51-120.32,93-125.62,123.9-1.4,8.19-10.42,13.2-18.71,13.25-27.71.17-110.67,0-138.61-2-5.68-.4-9.06-5-9.45-10.71-3.42-50,49.25-267.28,287-291.47A14,14,0,0,1,305.06,15.62Z"/><path class="cls-10" d="M304.72,15.86c2,54.41.57,77.19.41,140.55a13,13,0,0,1-10.43,12.73c-99,19.48-120.06,92.79-125.35,123.66C168,301,159,306,150.68,306c-27.65.17-110.44,0-138.31-2-5.67-.4-9-5-9.43-10.69C-.47,243.5,52.09,26.62,289.36,2.47A14,14,0,0,1,304.72,15.86Z"/><path class="cls-11" d="M304.38,16.1c2,54.31.57,77,.41,140.27a13,13,0,0,1-10.41,12.71c-98.78,19.44-119.81,92.61-125.08,123.42-1.4,8.16-10.37,13.15-18.63,13.2-27.59.16-110.2,0-138-2-5.66-.4-9-5-9.41-10.67-3.4-49.78,49-266.25,285.8-290.34A13.93,13.93,0,0,1,304.38,16.1Z"/><path class="cls-12" d="M304,16.34c2,54.2.57,76.89.41,140A12.94,12.94,0,0,1,294.06,169c-98.56,19.4-119.55,92.43-124.81,123.18-1.39,8.14-10.35,13.12-18.59,13.17-27.53.16-110,0-137.72-2-5.65-.4-9-5-9.39-10.65C.17,243.1,52.5,27.06,288.75,3A13.9,13.9,0,0,1,304,16.34Z"/><path class="cls-13" d="M303.7,16.58c2,54.1.56,76.74.41,139.73A12.91,12.91,0,0,1,293.75,169c-98.35,19.36-119.29,92.25-124.54,122.94-1.39,8.12-10.33,13.1-18.55,13.15-27.47.16-109.72,0-137.42-1.95-5.63-.4-9-5-9.37-10.62C.48,242.9,52.7,27.28,288.44,3.27A13.87,13.87,0,0,1,303.7,16.58Z"/><path class="cls-14" d="M303.36,16.82c2,54,.56,76.59.41,139.45a12.88,12.88,0,0,1-10.34,12.63c-98.14,19.32-119,92.07-124.27,122.7-1.39,8.11-10.31,13.07-18.51,13.12-27.41.16-109.49,0-137.12-1.94-5.62-.4-9-5-9.35-10.6C.8,242.7,52.91,27.5,288.14,3.54A13.84,13.84,0,0,1,303.36,16.82Z"/><path class="cls-15" d="M303,17.06c2,53.88.56,76.45.41,139.18a12.86,12.86,0,0,1-10.32,12.61c-97.93,19.29-118.77,91.89-124,122.46-1.38,8.09-10.29,13-18.47,13.1-27.35.16-109.25,0-136.82-1.94-5.61-.4-8.94-5-9.33-10.58C1.12,242.5,53.11,27.72,287.83,3.81A13.81,13.81,0,0,1,303,17.06Z"/><path class="cls-16" d="M302.68,17.31c1.95,53.78.56,76.3.41,138.91a12.83,12.83,0,0,1-10.29,12.58C195.08,188,174.28,260.51,169.06,291c-1.38,8.08-10.26,13-18.43,13.07-27.29.16-109,0-136.53-1.94-5.6-.4-8.92-4.95-9.31-10.56C1.44,242.3,53.31,27.94,287.52,4.07A13.79,13.79,0,0,1,302.68,17.31Z"/><path class="cls-17" d="M302.34,17.55c1.94,53.67.56,76.15.41,138.64a12.81,12.81,0,0,1-10.27,12.56C195,188,174.22,260.27,169,290.72c-1.38,8.06-10.24,13-18.39,13-27.23.16-108.77,0-136.23-1.93-5.58-.4-8.9-4.94-9.28-10.54C1.75,242.1,53.52,28.16,287.22,4.34A13.76,13.76,0,0,1,302.34,17.55Z"/><path class="cls-18" d="M302,17.79c1.94,53.57.56,76,.41,138.36a12.78,12.78,0,0,1-10.25,12.53C194.87,187.86,174.16,260,169,290.43c-1.37,8-10.22,13-18.35,13-27.17.16-108.54,0-135.93-1.93-5.57-.39-8.88-4.93-9.26-10.52C2.07,241.9,53.72,28.38,286.91,4.61A13.73,13.73,0,0,1,302,17.79Z"/><path class="cls-19" d="M301.66,18c1.93,53.46.56,75.85.41,138.09a12.75,12.75,0,0,1-10.23,12.51c-97.07,19.14-117.74,91.17-122.92,121.5-1.37,8-10.2,12.95-18.31,13-27.11.16-108.3,0-135.63-1.92-5.56-.39-8.86-4.92-9.24-10.5-3.34-49,48.2-262.1,280.87-285.82A13.7,13.7,0,0,1,301.66,18Z"/><path class="cls-20" d="M301.32,18.27c1.93,53.36.56,75.7.41,137.82a12.73,12.73,0,0,1-10.21,12.48c-96.86,19.1-117.48,91-122.65,121.26-1.37,8-10.17,12.92-18.27,13-27.06.16-108.06,0-135.34-1.92C9.72,300.49,6.42,296,6,290.4,2.7,241.49,54.13,28.81,286.3,5.14A13.67,13.67,0,0,1,301.32,18.27Z"/><path class="cls-21" d="M301,18.51c1.93,53.25.55,75.55.4,137.54a12.7,12.7,0,0,1-10.18,12.46c-96.65,19.06-117.22,90.81-122.38,121-1.37,8-10.15,12.89-18.23,12.94-27,.16-107.82,0-135-1.92-5.54-.39-8.82-4.9-9.2-10.46C3,241.29,54.33,29,286,5.41A13.64,13.64,0,0,1,301,18.51Z"/><path class="cls-22" d="M300.64,18.75c1.92,53.14.55,75.4.4,137.27a12.68,12.68,0,0,1-10.16,12.43c-96.43,19-117,90.63-122.11,120.78-1.36,8-10.13,12.87-18.19,12.92-26.94.16-107.59,0-134.74-1.91-5.52-.39-8.81-4.89-9.18-10.44C3.34,241.09,54.54,29.25,285.68,5.68A13.61,13.61,0,0,1,300.64,18.75Z"/><path class="cls-23" d="M300.3,19c1.92,53,.55,75.25.4,137a12.65,12.65,0,0,1-10.14,12.41c-96.22,19-116.71,90.45-121.84,120.54-1.36,8-10.11,12.84-18.15,12.89-26.88.16-107.35,0-134.44-1.91C10.62,299.53,7.35,295,7,289.51,3.65,240.89,54.74,29.47,285.38,5.94A13.58,13.58,0,0,1,300.3,19Z"/><path class="cls-24" d="M300,19.23c1.91,52.93.55,75.1.4,136.73a12.62,12.62,0,0,1-10.12,12.39c-96,18.95-116.45,90.27-121.57,120.3-1.36,7.95-10.08,12.82-18.11,12.87-26.82.16-107.11,0-134.15-1.91-5.5-.39-8.77-4.87-9.14-10.4C4,240.69,54.95,29.69,285.07,6.21A13.55,13.55,0,0,1,300,19.23Z"/><path class="cls-25" d="M299.62,19.47c1.91,52.83.55,74.95.4,136.45a12.6,12.6,0,0,1-10.09,12.36c-95.8,18.91-116.19,90.09-121.3,120.06-1.35,7.93-10.06,12.79-18.07,12.84-26.76.16-106.87,0-133.85-1.9-5.49-.39-8.75-4.86-9.12-10.38-3.3-48.42,47.56-259,277.18-282.44A13.52,13.52,0,0,1,299.62,19.47Z"/><path class="cls-26" d="M299.28,19.71c1.9,52.72.55,74.8.4,136.18a12.57,12.57,0,0,1-10.07,12.34c-95.58,18.87-115.93,89.91-121,119.82-1.35,7.92-10,12.77-18,12.81-26.7.16-106.64,0-133.55-1.9-5.47-.39-8.73-4.85-9.1-10.35C4.61,240.29,55.35,30.13,284.46,6.74A13.5,13.5,0,0,1,299.28,19.71Z"/><path class="cls-27" d="M298.94,20c1.9,52.62.55,74.65.4,135.91a12.55,12.55,0,0,1-10,12.31C193.93,187,173.62,257.9,168.53,287.75c-1.35,7.9-10,12.74-18,12.79-26.64.16-106.4,0-133.25-1.89-5.46-.39-8.71-4.84-9.08-10.33C4.92,240.08,55.56,30.35,284.15,7A13.47,13.47,0,0,1,298.94,20Z"/><path class="cls-28" d="M298.61,20.19c1.9,52.51.55,74.5.4,135.64a12.52,12.52,0,0,1-10,12.29c-95.16,18.8-115.42,89.55-120.49,119.34-1.34,7.89-10,12.72-17.95,12.76-26.58.16-106.16,0-133-1.89-5.45-.39-8.69-4.83-9.06-10.31C5.24,239.88,55.76,30.57,283.84,7.28A13.44,13.44,0,0,1,298.61,20.19Z"/><path class="cls-29" d="M298.27,20.43c1.89,52.41.54,74.35.4,135.36a12.5,12.5,0,0,1-10,12.26c-94.94,18.76-115.16,89.37-120.22,119.1-1.34,7.87-10,12.69-17.91,12.74-26.52.16-105.92,0-132.66-1.89-5.44-.39-8.67-4.82-9-10.29C5.56,239.68,56,30.79,283.54,7.54A13.41,13.41,0,0,1,298.27,20.43Z"/><path class="cls-30" d="M297.93,20.68c1.89,52.3.54,74.2.4,135.09a12.47,12.47,0,0,1-10,12.24c-94.73,18.72-114.9,89.19-120,118.86-1.34,7.85-9.95,12.66-17.87,12.71-26.46.16-105.68,0-132.36-1.88-5.43-.39-8.65-4.81-9-10.27C5.87,239.48,56.17,31,283.23,7.81A13.38,13.38,0,0,1,297.93,20.68Z"/><path class="cls-31" d="M297.59,20.92c1.88,52.19.54,74,.4,134.82a12.44,12.44,0,0,1-10,12.21c-94.52,18.68-114.64,89-119.69,118.62-1.34,7.84-9.93,12.64-17.83,12.69-26.4.16-105.45,0-132.06-1.88-5.41-.38-8.63-4.8-9-10.25C6.19,239.28,56.37,31.23,282.93,8.08A13.35,13.35,0,0,1,297.59,20.92Z"/><path class="cls-32" d="M297.25,21.16c1.88,52.09.54,73.9.39,134.54a12.42,12.42,0,0,1-9.94,12.19c-94.31,18.64-114.38,88.83-119.42,118.38-1.33,7.82-9.9,12.61-17.79,12.66-26.34.16-105.21,0-131.77-1.88-5.4-.38-8.61-4.79-9-10.23C6.51,239.08,56.58,31.45,282.62,8.34A13.32,13.32,0,0,1,297.25,21.16Z"/><path class="cls-33" d="M296.91,21.4c1.87,52,.54,73.75.39,134.27a12.39,12.39,0,0,1-9.91,12.16C193.3,186.44,173.26,256.48,168.24,286c-1.33,7.81-9.88,12.59-17.75,12.63-26.28.16-105,0-131.47-1.87-5.39-.38-8.59-4.78-9-10.21C6.82,238.88,56.78,31.67,282.31,8.61A13.29,13.29,0,0,1,296.91,21.4Z"/><path class="cls-34" d="M296.57,21.64c1.87,51.88.54,73.6.39,134a12.37,12.37,0,0,1-9.89,12.14c-93.88,18.57-113.87,88.47-118.88,117.9-1.33,7.79-9.86,12.56-17.71,12.61-26.22.16-104.73,0-131.17-1.87-5.38-.38-8.57-4.77-8.94-10.19C7.14,238.68,57,31.89,282,8.88A13.26,13.26,0,0,1,296.57,21.64Z"/><path class="cls-35" d="M296.23,21.88c1.87,51.77.54,73.45.39,133.73a12.34,12.34,0,0,1-9.87,12.11C193.09,186.25,173.14,256,168.15,285.38c-1.32,7.78-9.84,12.54-17.67,12.58-26.16.16-104.5,0-130.87-1.86-5.36-.38-8.55-4.76-8.92-10.17C7.46,238.48,57.19,32.11,281.7,9.14A13.23,13.23,0,0,1,296.23,21.88Z"/><path class="cls-36" d="M295.89,22.12c1.86,51.67.54,73.3.39,133.45a12.31,12.31,0,0,1-9.85,12.09C193,186.15,173.08,255.77,168.1,285.08c-1.32,7.76-9.82,12.51-17.63,12.56-26.1.16-104.26,0-130.58-1.86-5.35-.38-8.53-4.75-8.9-10.15C7.78,238.27,57.39,32.33,281.39,9.41A13.21,13.21,0,0,1,295.89,22.12Z"/><path class="cls-37" d="M295.55,22.36c1.86,51.56.53,73.15.39,133.18a12.29,12.29,0,0,1-9.82,12.06C192.88,186.06,173,255.53,168,284.79c-1.32,7.74-9.79,12.49-17.59,12.53-26,.16-104,0-130.28-1.86-5.34-.38-8.51-4.74-8.88-10.13C8.09,238.07,57.6,32.55,281.09,9.68A13.18,13.18,0,0,1,295.55,22.36Z"/><path class="cls-38" d="M295.21,22.6c1.85,51.45.53,73,.39,132.91a12.26,12.26,0,0,1-9.8,12C192.77,186,173,255.29,168,284.49c-1.31,7.73-9.77,12.46-17.55,12.51-26,.16-103.78,0-130-1.85-5.33-.38-8.49-4.73-8.86-10.11C8.41,237.87,57.8,32.77,280.78,9.94A13.15,13.15,0,0,1,295.21,22.6Z"/><path class="cls-39" d="M294.87,22.84c1.85,51.35.53,72.85.39,132.63a12.24,12.24,0,0,1-9.78,12C192.67,185.87,172.91,255.06,168,284.19c-1.31,7.71-9.75,12.43-17.51,12.48-25.93.16-103.55,0-129.68-1.85-5.32-.38-8.47-4.72-8.84-10.09C8.73,237.67,58,33,280.47,10.21A13.12,13.12,0,0,1,294.87,22.84Z"/><path class="cls-40" d="M294.53,23.08c1.84,51.24.53,72.7.39,132.36a12.21,12.21,0,0,1-9.76,12c-92.6,18.34-112.32,87.38-117.26,116.46-1.31,7.7-9.73,12.41-17.47,12.45-25.87.16-103.31,0-129.39-1.84-5.3-.38-8.46-4.71-8.82-10.06-3.19-47,46-251.23,267.94-274A13.09,13.09,0,0,1,294.53,23.08Z"/><path class="cls-40" d="M294.19,23.32c1.84,51.14.53,72.55.39,132.09a12.18,12.18,0,0,1-9.73,12c-92.39,18.3-112.06,87.2-117,116.22-1.3,7.68-9.7,12.38-17.43,12.43-25.81.16-103.07,0-129.09-1.84-5.29-.38-8.44-4.7-8.8-10C9.36,237.27,58.41,33.43,279.86,10.74A13.06,13.06,0,0,1,294.19,23.32Z"/><path class="cls-41" d="M293.85,23.56c1.84,51,.53,72.4.39,131.82a12.16,12.16,0,0,1-9.71,11.94c-92.18,18.27-111.8,87-116.72,116-1.3,7.66-9.68,12.36-17.39,12.4-25.75.15-102.83,0-128.79-1.84-5.28-.38-8.42-4.69-8.78-10C9.68,237.07,58.62,33.65,279.55,11A13,13,0,0,1,293.85,23.56Z"/><path class="cls-42" d="M293.51,23.81c1.83,50.93.53,72.25.39,131.54a12.13,12.13,0,0,1-9.69,11.92c-92,18.23-111.54,86.84-116.45,115.74-1.3,7.65-9.66,12.33-17.35,12.38-25.69.15-102.6,0-128.49-1.83-5.27-.37-8.4-4.68-8.76-10C10,236.87,58.82,33.87,279.25,11.28A13,13,0,0,1,293.51,23.81Z"/><path class="cls-43" d="M293.17,24c1.83,50.82.53,72.1.38,131.27a12.11,12.11,0,0,1-9.67,11.89c-91.75,18.19-111.28,86.66-116.18,115.5-1.3,7.63-9.64,12.31-17.31,12.35-25.63.15-102.36,0-128.2-1.83-5.26-.37-8.38-4.68-8.74-10C10.31,236.67,59,34.09,278.94,11.54A13,13,0,0,1,293.17,24Z"/><path class="cls-44" d="M292.83,24.29c1.82,50.72.52,71.95.38,131a12.08,12.08,0,0,1-9.64,11.87c-91.54,18.15-111,86.48-115.91,115.26-1.29,7.62-9.61,12.28-17.27,12.33-25.57.15-102.12,0-127.9-1.83-5.24-.37-8.36-4.67-8.72-10C10.63,236.46,59.23,34.31,278.64,11.81A12.94,12.94,0,0,1,292.83,24.29Z"/><path class="cls-45" d="M292.5,24.53c1.82,50.61.52,71.8.38,130.72a12.06,12.06,0,0,1-9.62,11.84c-91.32,18.11-110.77,86.3-115.64,115-1.29,7.6-9.59,12.25-17.23,12.3-25.51.15-101.88,0-127.6-1.82-5.23-.37-8.34-4.66-8.7-9.94C10.95,236.26,59.43,34.53,278.33,12.08A12.91,12.91,0,0,1,292.5,24.53Z"/><path class="cls-46" d="M292.16,24.77c1.82,50.5.52,71.65.38,130.45a12,12,0,0,1-9.6,11.82c-91.11,18.08-110.51,86.12-115.37,114.78-1.29,7.58-9.57,12.23-17.19,12.28-25.45.15-101.65,0-127.3-1.82-5.22-.37-8.32-4.65-8.68-9.92C11.26,236.06,59.64,34.75,278,12.34A12.89,12.89,0,0,1,292.16,24.77Z"/><path class="cls-47" d="M291.82,25c1.81,50.4.52,71.5.38,130.18A12,12,0,0,1,282.62,167c-90.9,18-110.25,85.94-115.1,114.54-1.28,7.57-9.55,12.2-17.15,12.25-25.39.15-101.41,0-127-1.81-5.21-.37-8.3-4.64-8.66-9.9C11.58,235.86,59.84,35,277.72,12.61A12.86,12.86,0,0,1,291.82,25Z"/><path class="cls-48" d="M291.48,25.25c1.81,50.29.52,71.35.38,129.91a12,12,0,0,1-9.55,11.77c-90.69,18-110,85.76-114.83,114.3-1.28,7.55-9.52,12.18-17.11,12.22-25.33.15-101.17,0-126.71-1.81-5.19-.37-8.28-4.63-8.64-9.88C11.9,235.66,60,35.19,277.41,12.88A12.83,12.83,0,0,1,291.48,25.25Z"/><path class="cls-49" d="M291.14,25.49c1.8,50.19.52,71.2.38,129.63A12,12,0,0,1,282,166.87c-90.47,18-109.73,85.58-114.56,114.06-1.28,7.54-9.5,12.15-17.07,12.2-25.27.15-100.93,0-126.41-1.81-5.18-.37-8.26-4.62-8.62-9.86-3.12-46,44.92-246.05,261.77-268.32A12.8,12.8,0,0,1,291.14,25.49Z"/><path class="cls-50" d="M290.8,25.73c1.8,50.08.52,71.05.38,129.36a11.93,11.93,0,0,1-9.51,11.72c-90.26,17.93-109.48,85.4-114.29,113.82-1.27,7.52-9.48,12.13-17,12.17-25.21.15-100.7,0-126.11-1.8-5.17-.37-8.24-4.61-8.6-9.84C12.53,235.26,60.45,35.63,276.8,13.41A12.77,12.77,0,0,1,290.8,25.73Z"/><path class="cls-51" d="M290.46,26c1.79,50,.52,70.9.38,129.09a11.9,11.9,0,0,1-9.49,11.69c-90,17.89-109.22,85.22-114,113.58-1.27,7.51-9.46,12.1-17,12.15-25.15.15-100.46,0-125.82-1.8-5.16-.37-8.22-4.6-8.58-9.82-3.1-45.81,44.71-245,260.54-267.19A12.74,12.74,0,0,1,290.46,26Z"/><path class="cls-52" d="M290.12,26.21c1.79,49.87.52,70.75.38,128.81A11.87,11.87,0,0,1,281,166.7c-89.83,17.85-109,85-113.75,113.34-1.27,7.49-9.44,12.08-16.95,12.12-25.09.15-100.22,0-125.52-1.8-5.15-.37-8.2-4.59-8.55-9.79-3.09-45.71,44.6-244.5,259.93-266.62A12.71,12.71,0,0,1,290.12,26.21Z"/><path class="cls-53" d="M289.78,26.45c1.79,49.76.51,70.6.38,128.54a11.85,11.85,0,0,1-9.44,11.64C191.09,184.45,172,251.5,167.23,279.74c-1.27,7.47-9.41,12.05-16.91,12.1-25,.15-100,0-125.22-1.79-5.13-.37-8.18-4.58-8.53-9.77-3.09-45.62,44.5-244,259.31-266.06A12.68,12.68,0,0,1,289.78,26.45Z"/><path class="cls-54" d="M289.44,26.69c1.78,49.66.51,70.45.37,128.27a11.82,11.82,0,0,1-9.42,11.62C191,184.36,172,251.27,167.18,279.44c-1.26,7.46-9.39,12-16.86,12.07-25,.15-99.75,0-124.92-1.79-5.12-.37-8.16-4.57-8.51-9.75C13.8,234.45,61.27,36.51,275.57,14.48A12.65,12.65,0,0,1,289.44,26.69Z"/><path class="cls-55" d="M289.1,26.93c1.78,49.55.51,70.3.37,128a11.8,11.8,0,0,1-9.4,11.59C190.88,184.26,171.89,251,167.13,279.15c-1.26,7.44-9.37,12-16.82,12-24.91.15-99.51,0-124.63-1.78-5.11-.36-8.14-4.56-8.49-9.73C14.12,234.25,61.47,36.73,275.26,14.74A12.62,12.62,0,0,1,289.1,26.93Z"/><path class="cls-56" d="M288.76,27.18c1.77,49.45.51,70.15.37,127.72a11.77,11.77,0,0,1-9.37,11.57c-89,17.7-107.93,84.32-112.67,112.38-1.26,7.43-9.35,12-16.78,12-24.85.15-99.27,0-124.33-1.78-5.1-.36-8.12-4.55-8.47-9.71C14.43,234,61.68,36.95,275,15A12.6,12.6,0,0,1,288.76,27.18Z"/><path class="cls-57" d="M288.42,27.42c1.77,49.34.51,70,.37,127.45a11.75,11.75,0,0,1-9.35,11.55C190.67,184.07,171.77,250.55,167,278.55c-1.25,7.41-9.32,11.95-16.74,12-24.8.15-99,0-124-1.78-5.08-.36-8.11-4.54-8.45-9.69C14.75,233.85,61.88,37.17,274.65,15.28A12.57,12.57,0,0,1,288.42,27.42Z"/><path class="cls-58" d="M288.08,27.66c1.76,49.24.51,69.85.37,127.18a11.72,11.72,0,0,1-9.33,11.52C190.57,184,171.71,250.32,167,278.26c-1.25,7.39-9.3,11.92-16.7,12-24.74.15-98.8,0-123.73-1.77-5.07-.36-8.09-4.53-8.43-9.67-3-45.13,44-241.39,256.23-263.24A12.54,12.54,0,0,1,288.08,27.66Z"/><path class="cls-59" d="M287.74,27.9c1.76,49.13.51,69.7.37,126.9a11.69,11.69,0,0,1-9.31,11.5C190.46,183.88,171.65,250.08,166.94,278c-1.25,7.38-9.28,11.9-16.66,11.94-24.68.15-98.56,0-123.44-1.77-5.06-.36-8.07-4.52-8.41-9.65-3-45,43.86-240.87,255.61-262.67A12.51,12.51,0,0,1,287.74,27.9Z"/><path class="cls-60" d="M287.4,28.14c1.76,49,.51,69.55.37,126.63a11.67,11.67,0,0,1-9.29,11.47c-88.13,17.55-106.89,83.6-111.6,111.42-1.24,7.36-9.26,11.87-16.62,11.92-24.62.15-98.32,0-123.14-1.77-5-.36-8-4.51-8.39-9.63-3-44.94,43.76-240.36,255-262.11A12.48,12.48,0,0,1,287.4,28.14Z"/><path class="cls-61" d="M287.06,28.38c1.75,48.92.5,69.4.37,126.36a11.64,11.64,0,0,1-9.26,11.45c-87.92,17.51-106.63,83.42-111.33,111.18-1.24,7.35-9.23,11.85-16.58,11.89-24.56.15-98.08,0-122.84-1.76-5-.36-8-4.5-8.37-9.61C16,233,62.7,38,273.43,16.34A12.45,12.45,0,0,1,287.06,28.38Z"/><path class="cls-62" d="M286.72,28.62c1.75,48.81.5,69.25.37,126.09a11.62,11.62,0,0,1-9.24,11.42c-87.7,17.47-106.38,83.24-111.06,110.94-1.24,7.33-9.21,11.82-16.54,11.86-24.5.15-97.85,0-122.54-1.76-5-.36-8-4.49-8.35-9.59-3-44.74,43.54-239.32,253.76-261A12.42,12.42,0,0,1,286.72,28.62Z"/><path class="cls-63" d="M286.38,28.86c1.74,48.71.5,69.1.37,125.81a11.59,11.59,0,0,1-9.22,11.4C190,183.51,171.41,249.13,166.75,276.77c-1.24,7.32-9.19,11.79-16.5,11.84-24.44.15-97.61,0-122.25-1.75-5-.36-8-4.48-8.33-9.57-3-44.65,43.44-238.8,253.15-260.41A12.39,12.39,0,0,1,286.38,28.86Z"/><path class="cls-64" d="M286,29.1c1.74,48.6.5,69,.37,125.54a11.56,11.56,0,0,1-9.2,11.37c-87.28,17.4-105.86,82.88-110.52,110.46-1.23,7.3-9.17,11.77-16.46,11.81-24.38.15-97.37,0-121.95-1.75-5-.36-8-4.47-8.31-9.55C17,232.44,63.31,38.71,272.51,17.14A12.36,12.36,0,0,1,286,29.1Z"/><path class="cls-65" d="M285.71,29.34c1.73,48.5.5,68.8.36,125.27A11.54,11.54,0,0,1,276.9,166c-87.07,17.36-105.6,82.7-110.25,110.22-1.23,7.28-9.14,11.74-16.42,11.79-24.32.15-97.13,0-121.65-1.75-5-.36-7.95-4.46-8.29-9.52-3-44.45,43.23-237.77,251.92-259.28A12.33,12.33,0,0,1,285.71,29.34Z"/><path class="cls-66" d="M285.37,29.58c1.73,48.39.5,68.65.36,125a11.51,11.51,0,0,1-9.15,11.32c-86.85,17.32-105.34,82.52-110,110-1.23,7.27-9.12,11.72-16.38,11.76-24.26.15-96.9,0-121.35-1.74-5-.36-7.93-4.45-8.27-9.5C17.6,232,63.71,39.15,271.89,17.68A12.31,12.31,0,0,1,285.37,29.58Z"/><path class="cls-67" d="M285,29.82c1.73,48.29.5,68.5.36,124.72a11.49,11.49,0,0,1-9.13,11.3c-86.64,17.28-105.09,82.34-109.71,109.74-1.22,7.25-9.1,11.69-16.34,11.74-24.2.15-96.66,0-121.06-1.74-5-.36-7.91-4.44-8.25-9.48-3-44.26,43-236.73,250.68-258.15A12.28,12.28,0,0,1,285,29.82Z"/><path class="cls-68" d="M284.69,30.06c1.72,48.18.5,68.35.36,124.45a11.46,11.46,0,0,1-9.11,11.27C189.52,183,171.12,247.95,166.5,275.29c-1.22,7.24-9.08,11.67-16.3,11.71-24.14.15-96.42,0-120.76-1.73-5-.35-7.89-4.43-8.23-9.46-3-44.16,42.91-236.21,250.07-257.59A12.25,12.25,0,0,1,284.69,30.06Z"/><path class="cls-69" d="M284.35,30.3c1.72,48.07.49,68.2.36,124.18a11.43,11.43,0,0,1-9.08,11.25c-86.21,17.21-104.57,82-109.17,109.26-1.22,7.22-9.06,11.64-16.26,11.68-24.08.15-96.18,0-120.46-1.73-4.94-.35-7.87-4.42-8.21-9.44-3-44.07,42.8-235.69,249.45-257A12.22,12.22,0,0,1,284.35,30.3Z"/><path class="cls-70" d="M284,30.55c1.71,48,.49,68.05.36,123.9a11.41,11.41,0,0,1-9.06,11.22c-86,17.17-104.31,81.8-108.9,109-1.21,7.2-9,11.62-16.22,11.66-24,.15-95.95,0-120.16-1.73-4.93-.35-7.85-4.41-8.19-9.42-3-44,42.7-235.18,248.84-256.46A12.19,12.19,0,0,1,284,30.55Z"/><path class="cls-71" d="M283.67,30.79c1.71,47.86.49,67.9.36,123.63a11.38,11.38,0,0,1-9,11.2C189.2,182.75,170.94,247.24,166.36,274.4c-1.21,7.19-9,11.59-16.18,11.63-24,.15-95.71,0-119.87-1.72-4.91-.35-7.83-4.4-8.17-9.4C19.19,231,64.73,40.25,270.36,19A12.16,12.16,0,0,1,283.67,30.79Z"/><path class="cls-72" d="M283.33,31c1.7,47.76.49,67.75.36,123.36a11.36,11.36,0,0,1-9,11.17C189.1,182.65,170.88,247,166.31,274.1c-1.21,7.17-9,11.56-16.14,11.61-23.9.14-95.47,0-119.57-1.72-4.9-.35-7.81-4.39-8.15-9.38C19.5,230.83,64.94,40.47,270.06,19.28A12.13,12.13,0,0,1,283.33,31Z"/><path class="cls-73" d="M283,31.27c1.7,47.65.49,67.6.36,123.09a11.33,11.33,0,0,1-9,11.15C189,182.56,170.82,246.76,166.26,273.8c-1.21,7.16-9,11.54-16.1,11.58-23.84.14-95.23,0-119.27-1.72-4.89-.35-7.79-4.38-8.13-9.36-2.94-43.68,42.38-233.62,247-254.77A12.1,12.1,0,0,1,283,31.27Z"/><path class="cls-74" d="M282.65,31.51c1.7,47.55.49,67.45.36,122.81a11.31,11.31,0,0,1-9,11.13c-85.15,17-103.28,81.08-107.82,108.06-1.2,7.14-8.94,11.51-16.06,11.56-23.78.14-95,0-119-1.71C26.3,283,23.41,279,23.07,274,20.14,230.43,65.35,40.91,269.44,19.81A12.07,12.07,0,0,1,282.65,31.51Z"/><path class="cls-75" d="M282.31,31.75c1.69,47.44.49,67.3.36,122.54a11.28,11.28,0,0,1-8.95,11.1c-84.94,17-103,80.9-107.55,107.82-1.2,7.12-8.92,11.49-16,11.53-23.72.14-94.76,0-118.68-1.71-4.86-.35-7.76-4.36-8.09-9.32C20.46,230.23,65.55,41.13,269.14,20.08A12,12,0,0,1,282.31,31.75Z"/><path class="cls-76" d="M282,32c1.69,47.34.49,67.15.35,122.27a11.25,11.25,0,0,1-8.93,11.08c-84.72,16.94-102.76,80.72-107.28,107.58-1.2,7.11-8.9,11.46-16,11.51-23.67.14-94.52,0-118.38-1.7-4.85-.35-7.74-4.35-8.07-9.3C20.77,230,65.75,41.35,268.83,20.34A12,12,0,0,1,282,32Z"/><path class="cls-77" d="M281.63,32.23c1.68,47.23.48,67,.35,122a11.23,11.23,0,0,1-8.9,11.05c-84.51,16.91-102.5,80.54-107,107.34-1.19,7.09-8.88,11.44-15.94,11.48-23.61.14-94.28,0-118.08-1.7-4.84-.35-7.72-4.34-8-9.28C21.09,229.83,66,41.57,268.52,20.61A12,12,0,0,1,281.63,32.23Z"/><path class="cls-78" d="M281.29,32.47c1.68,47.12.48,66.85.35,121.72a11.2,11.2,0,0,1-8.88,11c-84.3,16.87-102.24,80.36-106.74,107.1-1.19,7.08-8.85,11.41-15.9,11.45-23.55.14-94,0-117.78-1.7-4.83-.35-7.7-4.34-8-9.26-2.9-43.2,41.85-231,243.91-251.94A12,12,0,0,1,281.29,32.47Z"/></g></g></svg>