<svg xmlns="http://www.w3.org/2000/svg" viewBox="0 0 308.83 308.98"><defs><style>.cls-1{fill:#900;}.cls-2{fill:#9a0000;}.cls-3{fill:#9b0101;}.cls-4{fill:#9c0101;}.cls-5{fill:#9d0202;}.cls-6{fill:#9e0202;}.cls-7{fill:#9f0303;}.cls-8{fill:#a00303;}.cls-9{fill:#a10404;}.cls-10{fill:#a20404;}.cls-11{fill:#a30505;}.cls-12{fill:#a40505;}.cls-13{fill:#a50606;}.cls-14{fill:#a60606;}.cls-15{fill:#a70707;}.cls-16{fill:#a80707;}.cls-17{fill:#a90808;}.cls-18{fill:#aa0808;}.cls-19{fill:#ab0909;}.cls-20{fill:#ac0909;}.cls-21{fill:#ad0a0a;}.cls-22{fill:#ae0a0a;}.cls-23{fill:#af0b0b;}.cls-24{fill:#b00b0b;}.cls-25{fill:#b10c0c;}.cls-26{fill:#b20c0c;}.cls-27{fill:#b30d0d;}.cls-28{fill:#b40d0d;}.cls-29{fill:#b50e0e;}.cls-30{fill:#b60e0e;}.cls-31{fill:#b70f0f;}.cls-32{fill:#b80f0f;}.cls-33{fill:#b91010;}.cls-34{fill:#ba1010;}.cls-35{fill:#b11;}.cls-36{fill:#bc1111;}.cls-37{fill:#bd1212;}.cls-38{fill:#be1212;}.cls-39{fill:#bf1313;}.cls-40{fill:#c01313;}.cls-41{fill:#c11414;}.cls-42{fill:#c21414;}.cls-43{fill:#c31515;}.cls-44{fill:#c41515;}.cls-45{fill:#c51616;}.cls-46{fill:#c61616;}.cls-47{fill:#c71717;}.cls-48{fill:#c81717;}.cls-49{fill:#c91818;}.cls-50{fill:#ca1818;}.cls-51{fill:#cb1919;}.cls-52{fill:#cc1919;}.cls-53{fill:#cc1a1a;}.cls-54{fill:#cd1a1a;}.cls-55{fill:#ce1b1b;}.cls-56{fill:#cf1b1b;}.cls-57{fill:#d01c1c;}.cls-58{fill:#d11c1c;}.cls-59{fill:#d21d1d;}.cls-60{fill:#d31d1d;}.cls-61{fill:#d41e1e;}.cls-62{fill:#d51e1e;}.cls-63{fill:#d61f1f;}.cls-64{fill:#d71f1f;}.cls-65{fill:#d82020;}.cls-66{fill:#d92020;}.cls-67{fill:#da2121;}.cls-68{fill:#db2121;}.cls-69{fill:#dc2222;}.cls-70{fill:#d22;}.cls-71{fill:#de2323;}.cls-72{fill:#df2323;}.cls-73{fill:#e02424;}.cls-74{fill:#e12424;}.cls-75{fill:#e22525;}.cls-76{fill:#e32525;}.cls-77{fill:#e42626;}.cls-78{fill:#e52626;}.cls-79{fill:#e62727;}.cls-80{fill:#e72727;}.cls-81{fill:#e82828;}.cls-82{fill:#e92828;}.cls-83{fill:#ea2929;}.cls-84{fill:#eb2929;}.cls-85{fill:#ec2a2a;}.cls-86{fill:#ed2a2a;}.cls-87{fill:#ee2b2b;}.cls-88{fill:#ef2b2b;}.cls-89{fill:#f02c2c;}.cls-90{fill:#f12c2c;}.cls-91{fill:#f22d2d;}.cls-92{fill:#f32d2d;}.cls-93{fill:#f42e2e;}.cls-94{fill:#f52e2e;}.cls-95{fill:#f62f2f;}.cls-96{fill:#f72f2f;}.cls-97{fill:#f83030;}.cls-98{fill:#f93030;}.cls-99{fill:#fa3131;}.cls-100{fill:#fb3131;}.cls-101{fill:#fc3232;}.cls-102{fill:#fd3232;}.cls-103{fill:#fe3333;}.cls-104{fill:#f33;}</style></defs><title>Asset 5</title><g id="Layer_2" data-name="Layer 2"><g id="Layer_2-2" data-name="Layer 2"><path class="cls-1" d="M1.06,13.69c-2,55.36-.58,78.54-.42,143a13.22,13.22,0,0,0,10.63,13C112.18,189.47,133.66,264.06,139,295.47c1.43,8.31,10.6,13.41,19,13.46,28.19.17,112.57,0,141-2,5.78-.41,9.21-5.09,9.61-10.87,3.48-50.75-50.1-271.42-292-296A14.22,14.22,0,0,0,1.06,13.69Z"/><path class="cls-2" d="M1.32,13.88C-.69,69.16.74,92.31.9,156.67a13.2,13.2,0,0,0,10.61,12.94c100.74,19.79,122.19,94.27,127.57,125.64,1.42,8.3,10.58,13.39,19,13.44,28.14.17,112.39,0,140.76-2,5.77-.41,9.2-5.09,9.59-10.86,3.47-50.67-50-271-291.5-295.56A14.2,14.2,0,0,0,1.32,13.88Z"/><path class="cls-3" d="M1.58,14.06c-2,55.2-.58,78.32-.42,142.59a13.18,13.18,0,0,0,10.6,12.92c100.58,19.76,122,94.14,127.37,125.46,1.42,8.29,10.56,13.37,19,13.42,28.1.17,112.21,0,140.54-2,5.76-.41,9.18-5.08,9.58-10.84C311.67,245,258.27,25,17.18.48A14.18,14.18,0,0,0,1.58,14.06Z"/><path class="cls-4" d="M1.83,14.24c-2,55.12-.58,78.2-.42,142.38A13.16,13.16,0,0,0,12,169.52c100.42,19.73,121.8,94,127.16,125.28,1.42,8.28,10.55,13.35,18.94,13.4,28.05.17,112,0,140.31-2,5.75-.41,9.17-5.07,9.56-10.83C311.43,244.86,258.12,25.14,17.41.68A14.16,14.16,0,0,0,1.83,14.24Z"/><path class="cls-5" d="M2.09,14.42c-2,55-.57,78.09-.42,142.17a13.14,13.14,0,0,0,10.56,12.88c100.26,19.7,121.61,93.86,127,125.1,1.42,8.27,10.53,13.33,18.91,13.38,28,.17,111.85,0,140.09-2,5.74-.41,9.15-5.06,9.55-10.81C311.19,244.71,258,25.3,17.64.88A14.13,14.13,0,0,0,2.09,14.42Z"/><path class="cls-6" d="M2.35,14.61c-2,55-.57,78-.42,142a13.12,13.12,0,0,0,10.55,12.86c100.1,19.67,121.41,93.73,126.75,124.91,1.41,8.25,10.51,13.31,18.88,13.36,28,.17,111.67,0,139.86-2,5.73-.4,9.14-5.06,9.53-10.79C311,244.55,257.81,25.47,17.87,1.08A14.11,14.11,0,0,0,2.35,14.61Z"/><path class="cls-7" d="M2.6,14.79C.61,69.67,2,92.65,2.19,156.55a13.1,13.1,0,0,0,10.53,12.84C112.65,189,133.93,263,139.26,294.12c1.41,8.24,10.5,13.29,18.85,13.34,27.92.17,111.49,0,139.64-2,5.72-.4,9.13-5,9.52-10.78C310.71,244.4,257.65,25.64,18.11,1.29A14.09,14.09,0,0,0,2.6,14.79Z"/><path class="cls-8" d="M2.86,15c-2,54.8-.57,77.75-.42,141.56A13.08,13.08,0,0,0,13,169.35C112.73,189,134,262.8,139.3,293.9c1.41,8.23,10.48,13.27,18.82,13.32,27.87.17,111.31,0,139.41-2,5.71-.4,9.11-5,9.5-10.76,3.44-50.23-49.54-268.68-288.7-293A14.07,14.07,0,0,0,2.86,15Z"/><path class="cls-9" d="M3.12,15.15c-2,54.72-.57,77.64-.42,141.35a13.06,13.06,0,0,0,10.5,12.8C112.81,188.89,134,262.62,139.34,293.67c1.41,8.22,10.46,13.25,18.79,13.3,27.83.17,111.13,0,139.19-2,5.71-.4,9.1-5,9.49-10.75C310.23,244.1,257.34,26,18.57,1.69A14,14,0,0,0,3.12,15.15Z"/><path class="cls-10" d="M3.38,15.33C1.39,70,2.81,92.86,3,156.48a13,13,0,0,0,10.48,12.79c99.45,19.56,120.63,93.18,125.94,124.19,1.4,8.21,10.45,13.23,18.76,13.28,27.78.17,111,0,139-2,5.7-.4,9.08-5,9.47-10.73C310,243.94,257.19,26.14,18.8,1.89A14,14,0,0,0,3.38,15.33Z"/><path class="cls-11" d="M3.63,15.52c-2,54.56-.57,77.41-.42,140.94a13,13,0,0,0,10.46,12.77c99.29,19.53,120.43,93,125.73,124,1.4,8.19,10.43,13.21,18.73,13.26,27.73.17,110.78,0,138.74-2,5.69-.4,9.07-5,9.46-10.72C309.75,243.79,257,26.3,19,2.09A14,14,0,0,0,3.63,15.52Z"/><path class="cls-12" d="M3.89,15.7c-2,54.48-.57,77.29-.42,140.73a13,13,0,0,0,10.44,12.75c99.13,19.5,120.24,92.91,125.53,123.82,1.4,8.18,10.41,13.19,18.7,13.24,27.69.17,110.6,0,138.51-2,5.68-.4,9.05-5,9.44-10.7C309.51,243.64,256.88,26.47,19.27,2.3A14,14,0,0,0,3.89,15.7Z"/><path class="cls-13" d="M4.15,15.88c-2,54.4-.57,77.18-.41,140.52a13,13,0,0,0,10.43,12.73c99,19.47,120,92.77,125.32,123.64,1.4,8.17,10.39,13.17,18.67,13.22,27.64.17,110.42,0,138.29-2,5.67-.4,9-5,9.42-10.68C309.27,243.49,256.73,26.64,19.5,2.5A14,14,0,0,0,4.15,15.88Z"/><path class="cls-14" d="M4.4,16.06c-2,54.32-.57,77.07-.41,140.32A13,13,0,0,0,14.4,169.09c98.81,19.44,119.85,92.64,125.12,123.46,1.4,8.16,10.38,13.15,18.64,13.2,27.6.16,110.24,0,138.06-2,5.66-.4,9-5,9.41-10.67C309,243.33,256.57,26.8,19.73,2.7A13.94,13.94,0,0,0,4.4,16.06Z"/><path class="cls-15" d="M4.66,16.25c-2,54.24-.57,77-.41,140.11A13,13,0,0,0,14.64,169c98.65,19.42,119.65,92.5,124.92,123.28,1.39,8.15,10.36,13.13,18.61,13.18,27.55.16,110.06,0,137.84-2,5.65-.4,9-5,9.39-10.65C308.79,243.18,256.42,27,20,2.9A13.91,13.91,0,0,0,4.66,16.25Z"/><path class="cls-16" d="M4.92,16.43c-2,54.16-.56,76.84-.41,139.9A12.93,12.93,0,0,0,14.88,169c98.49,19.39,119.46,92.36,124.71,123.1,1.39,8.13,10.34,13.12,18.58,13.16,27.51.16,109.88,0,137.61-2,5.64-.4,9-5,9.38-10.64C308.55,243,256.26,27.13,20.2,3.1A13.89,13.89,0,0,0,4.92,16.43Z"/><path class="cls-17" d="M5.18,16.61c-2,54.08-.56,76.73-.41,139.7A12.91,12.91,0,0,0,15.12,169c98.33,19.36,119.26,92.23,124.51,122.92C141,300,150,305,158.18,305c27.46.16,109.7,0,137.38-1.95,5.63-.4,9-5,9.36-10.62C308.31,242.88,256.11,27.3,20.43,3.31A13.87,13.87,0,0,0,5.18,16.61Z"/><path class="cls-18" d="M5.43,16.79c-2,54-.56,76.61-.41,139.49a12.89,12.89,0,0,0,10.34,12.64c98.16,19.33,119.06,92.09,124.3,122.73,1.39,8.11,10.31,13.08,18.52,13.13,27.42.16,109.52,0,137.16-1.94,5.62-.4,9-5,9.35-10.61,3.38-49.5-48.74-264.76-284-288.72A13.85,13.85,0,0,0,5.43,16.79Z"/><path class="cls-19" d="M5.69,17c-2,53.92-.56,76.5-.41,139.28A12.87,12.87,0,0,0,15.6,168.88c98,19.3,118.87,92,124.1,122.55,1.38,8.1,10.29,13.06,18.49,13.11,27.37.16,109.34,0,136.93-1.94,5.61-.4,8.95-5,9.33-10.59C307.83,242.57,255.8,27.63,20.89,3.71A13.83,13.83,0,0,0,5.69,17Z"/><path class="cls-20" d="M5.95,17.16C4,71,5.39,93.54,5.54,156.23a12.85,12.85,0,0,0,10.31,12.6c97.84,19.27,118.67,91.82,123.89,122.37,1.38,8.09,10.28,13,18.46,13.09,27.33.16,109.16,0,136.71-1.94,5.6-.4,8.93-5,9.32-10.57,3.37-49.35-48.58-264-283.1-287.86A13.8,13.8,0,0,0,5.95,17.16Z"/><path class="cls-21" d="M6.2,17.34C4.26,71.1,5.64,93.61,5.79,156.21a12.83,12.83,0,0,0,10.29,12.58C113.77,188,134.56,260.47,139.78,291c1.38,8.07,10.26,13,18.43,13.07,27.28.16,109,0,136.48-1.94,5.59-.4,8.92-4.95,9.3-10.56C307.35,242.27,255.49,28,21.36,4.11A13.78,13.78,0,0,0,6.2,17.34Z"/><path class="cls-22" d="M6.46,17.52C4.52,71.21,5.9,93.68,6.05,156.19a12.81,12.81,0,0,0,10.27,12.56c97.52,19.21,118.28,91.55,123.49,122,1.38,8.06,10.24,13,18.4,13,27.24.16,108.8,0,136.26-1.93,5.59-.4,8.9-4.94,9.29-10.54,3.36-49.21-48.42-263.19-282.17-287A13.76,13.76,0,0,0,6.46,17.52Z"/><path class="cls-23" d="M6.72,17.7c-1.94,53.6-.56,76-.41,138.46A12.79,12.79,0,0,0,16.57,168.7c97.36,19.19,118.09,91.41,123.28,121.82,1.38,8.05,10.23,13,18.36,13,27.19.16,108.62,0,136-1.93,5.58-.39,8.89-4.93,9.27-10.53C306.87,242,255.18,28.3,21.82,4.52A13.74,13.74,0,0,0,6.72,17.7Z"/><path class="cls-24" d="M7,17.89C5,71.41,6.42,93.82,6.57,156.14a12.77,12.77,0,0,0,10.24,12.52C114,187.82,134.7,259.93,139.89,290.3c1.37,8,10.21,13,18.33,13,27.15.16,108.44,0,135.81-1.93,5.57-.39,8.87-4.92,9.26-10.51C306.63,241.81,255,28.47,22.05,4.72A13.72,13.72,0,0,0,7,17.89Z"/><path class="cls-25" d="M7.23,18.07c-1.93,53.44-.56,75.82-.41,138A12.75,12.75,0,0,0,17,168.62c97,19.13,117.7,91.14,122.87,121.46,1.37,8,10.19,12.94,18.3,13,27.1.16,108.26,0,135.58-1.92,5.56-.39,8.86-4.92,9.24-10.5,3.34-49-48.18-262-280.77-285.73A13.69,13.69,0,0,0,7.23,18.07Z"/><path class="cls-26" d="M7.49,18.25C5.56,71.62,6.93,94,7.08,156.09a12.73,12.73,0,0,0,10.21,12.49c96.87,19.1,117.5,91,122.67,121.28,1.37,8,10.17,12.92,18.27,13,27.06.16,108.08,0,135.36-1.92,5.55-.39,8.85-4.91,9.23-10.48,3.34-48.91-48.1-261.62-280.3-285.3A13.67,13.67,0,0,0,7.49,18.25Z"/><path class="cls-27" d="M7.75,18.43C5.82,71.72,7.19,94,7.34,156.06a12.71,12.71,0,0,0,10.19,12.47c96.71,19.07,117.3,90.86,122.47,121.1,1.37,8,10.16,12.9,18.24,13,27,.16,107.9,0,135.13-1.92,5.54-.39,8.83-4.9,9.21-10.46C305.91,241.35,254.56,29,22.75,5.33A13.65,13.65,0,0,0,7.75,18.43Z"/><path class="cls-28" d="M8,18.62C6.08,71.82,7.45,94.1,7.6,156a12.69,12.69,0,0,0,10.17,12.45c96.55,19,117.11,90.73,122.26,120.92,1.36,8,10.14,12.88,18.21,12.93,27,.16,107.72,0,134.91-1.92,5.53-.39,8.82-4.89,9.19-10.45C305.67,241.2,254.41,29.13,23,5.53A13.63,13.63,0,0,0,8,18.62Z"/><path class="cls-29" d="M8.26,18.8C6.34,71.92,7.71,94.16,7.86,156A12.67,12.67,0,0,0,18,168.44c96.39,19,116.91,90.59,122.06,120.73,1.36,8,10.12,12.86,18.18,12.91,26.92.16,107.54,0,134.68-1.91,5.52-.39,8.8-4.89,9.18-10.43C305.43,241,254.25,29.3,23.21,5.73A13.61,13.61,0,0,0,8.26,18.8Z"/><path class="cls-30" d="M8.52,19C6.6,72,8,94.23,8.11,156A12.65,12.65,0,0,0,18.25,168.4C114.48,187.39,135,258.86,140.11,289c1.36,8,10.11,12.84,18.15,12.89,26.88.16,107.36,0,134.46-1.91,5.51-.39,8.79-4.88,9.16-10.42C305.19,240.9,254.1,29.47,23.44,5.93A13.58,13.58,0,0,0,8.52,19Z"/><path class="cls-31" d="M8.77,19.16c-1.91,53-.55,75.14-.4,136.8a12.63,12.63,0,0,0,10.12,12.39c96.07,19,116.52,90.32,121.65,120.37,1.36,8,10.09,12.82,18.12,12.87,26.83.16,107.18,0,134.23-1.91,5.5-.39,8.77-4.87,9.15-10.4,3.31-48.55-47.7-259.66-278-283.16A13.56,13.56,0,0,0,8.77,19.16Z"/><path class="cls-32" d="M9,19.35c-1.91,52.88-.55,75-.4,136.6a12.61,12.61,0,0,0,10.1,12.37c95.91,18.93,116.33,90.18,121.44,120.19,1.35,7.94,10.07,12.81,18.09,12.85,26.79.16,107,0,134-1.9,5.49-.39,8.76-4.86,9.13-10.39,3.3-48.47-47.62-259.27-277.5-282.73A13.54,13.54,0,0,0,9,19.35Z"/><path class="cls-33" d="M9.29,19.53c-1.91,52.8-.55,74.91-.4,136.39A12.59,12.59,0,0,0,19,168.27c95.75,18.9,116.13,90,121.24,120,1.35,7.93,10.06,12.79,18.06,12.83,26.74.16,106.82,0,133.78-1.9,5.48-.39,8.74-4.86,9.12-10.37,3.3-48.4-47.54-258.88-277-282.3A13.52,13.52,0,0,0,9.29,19.53Z"/><path class="cls-34" d="M9.55,19.71c-1.9,52.72-.55,74.8-.4,136.18a12.57,12.57,0,0,0,10.07,12.34c95.58,18.87,115.94,89.91,121,119.82,1.35,7.92,10,12.77,18,12.81,26.7.16,106.64,0,133.55-1.9,5.47-.39,8.73-4.85,9.1-10.35C304.23,240.29,253.48,30.13,24.37,6.74A13.5,13.5,0,0,0,9.55,19.71Z"/><path class="cls-35" d="M9.8,19.89c-1.9,52.64-.55,74.68-.4,136a12.55,12.55,0,0,0,10.05,12.32C114.88,187,135.2,258,140.29,287.83c1.35,7.91,10,12.75,18,12.8,26.65.16,106.46,0,133.33-1.9,5.47-.39,8.71-4.84,9.09-10.34C304,240.14,253.33,30.3,24.6,6.94A13.47,13.47,0,0,0,9.8,19.89Z"/><path class="cls-36" d="M10.06,20.07c-1.9,52.56-.55,74.57-.4,135.77a12.53,12.53,0,0,0,10,12.3C115,187,135.24,257.78,140.33,287.6c1.35,7.89,10,12.73,18,12.78,26.61.16,106.28,0,133.1-1.89,5.46-.39,8.7-4.84,9.07-10.32,3.28-48.18-47.3-257.7-275.63-281A13.45,13.45,0,0,0,10.06,20.07Z"/><path class="cls-37" d="M10.32,20.26c-1.89,52.48-.55,74.46-.4,135.56a12.51,12.51,0,0,0,10,12.28c95.1,18.79,115.35,89.5,120.42,119.28,1.34,7.88,10,12.71,17.94,12.76,26.56.16,106.1,0,132.88-1.89,5.45-.39,8.68-4.83,9.06-10.31C303.51,239.83,253,30.63,25.07,7.35A13.43,13.43,0,0,0,10.32,20.26Z"/><path class="cls-38" d="M10.57,20.44c-1.89,52.4-.54,74.34-.4,135.36a12.49,12.49,0,0,0,10,12.26c94.94,18.76,115.15,89.36,120.22,119.1,1.34,7.87,10,12.69,17.91,12.74,26.52.16,105.92,0,132.65-1.89,5.44-.39,8.67-4.82,9-10.29,3.27-48-47.14-256.92-274.7-280.17A13.41,13.41,0,0,0,10.57,20.44Z"/><path class="cls-39" d="M10.83,20.62c-1.89,52.32-.54,74.23-.4,135.15a12.48,12.48,0,0,0,10,12.24c94.78,18.73,115,89.23,120,118.92,1.34,7.86,10,12.67,17.88,12.72,26.47.16,105.74,0,132.43-1.88,5.43-.39,8.65-4.81,9-10.28C303,239.53,252.71,31,25.53,7.75A13.39,13.39,0,0,0,10.83,20.62Z"/><path class="cls-40" d="M11.09,20.8C9.2,73,10.55,94.92,10.69,155.75a12.46,12.46,0,0,0,10,12.22c94.62,18.7,114.76,89.09,119.81,118.73,1.34,7.85,9.94,12.65,17.85,12.7,26.43.16,105.56,0,132.2-1.88,5.42-.38,8.64-4.81,9-10.26C302.79,239.37,252.56,31.13,25.76,8A13.36,13.36,0,0,0,11.09,20.8Z"/><path class="cls-41" d="M11.34,21c-1.88,52.16-.54,74-.4,134.74a12.44,12.44,0,0,0,10,12.21c94.46,18.67,114.57,89,119.61,118.55,1.33,7.83,9.92,12.63,17.82,12.68,26.38.16,105.38,0,132-1.88,5.41-.38,8.62-4.8,9-10.25C302.55,239.22,252.4,31.3,26,8.15A13.34,13.34,0,0,0,11.34,21Z"/><path class="cls-42" d="M11.6,21.17c-1.88,52.08-.54,73.89-.39,134.53a12.42,12.42,0,0,0,9.93,12.19c94.29,18.64,114.37,88.82,119.4,118.37,1.33,7.82,9.9,12.61,17.79,12.66,26.34.16,105.2,0,131.75-1.88,5.4-.38,8.61-4.79,9-10.23C302.31,239.07,252.25,31.46,26.23,8.36A13.32,13.32,0,0,0,11.6,21.17Z"/><path class="cls-43" d="M11.86,21.35c-1.88,52-.54,73.78-.39,134.32a12.4,12.4,0,0,0,9.92,12.17c94.13,18.61,114.17,88.68,119.2,118.19,1.33,7.81,9.89,12.59,17.76,12.64,26.29.16,105,0,131.53-1.87,5.39-.38,8.59-4.78,9-10.21,3.24-47.67-46.74-255-272.37-278A13.3,13.3,0,0,0,11.86,21.35Z"/><path class="cls-44" d="M12.12,21.53c-1.87,51.92-.54,73.66-.39,134.12a12.38,12.38,0,0,0,9.9,12.15c94,18.59,114,88.54,119,118,1.33,7.8,9.87,12.57,17.73,12.62,26.25.16,104.84,0,131.3-1.87,5.38-.38,8.58-4.78,8.95-10.2,3.24-47.59-46.66-254.56-271.9-277.6A13.28,13.28,0,0,0,12.12,21.53Z"/><path class="cls-45" d="M12.37,21.72C10.5,73.56,11.84,95.27,12,155.63a12.36,12.36,0,0,0,9.88,12.13c93.81,18.56,113.78,88.41,118.79,117.83,1.33,7.79,9.85,12.55,17.7,12.6,26.2.16,104.66,0,131.08-1.87,5.37-.38,8.57-4.77,8.93-10.18C301.59,238.61,251.78,32,26.92,9A13.25,13.25,0,0,0,12.37,21.72Z"/><path class="cls-46" d="M12.63,21.9c-1.87,51.76-.54,73.44-.39,133.7a12.34,12.34,0,0,0,9.87,12.11C115.75,186.24,135.69,256,140.69,285.36c1.32,7.77,9.84,12.53,17.67,12.58,26.16.16,104.48,0,130.85-1.86,5.36-.38,8.55-4.76,8.92-10.17,3.23-47.45-46.5-253.78-271-276.74A13.23,13.23,0,0,0,12.63,21.9Z"/><path class="cls-47" d="M12.89,22.08C11,73.76,12.35,95.4,12.5,155.58a12.32,12.32,0,0,0,9.85,12.09c93.49,18.5,113.39,88.14,118.38,117.46,1.32,7.76,9.82,12.51,17.63,12.56,26.11.16,104.3,0,130.63-1.86,5.35-.38,8.54-4.75,8.9-10.15C301.11,238.31,251.47,32.3,27.39,9.37A13.21,13.21,0,0,0,12.89,22.08Z"/><path class="cls-48" d="M13.14,22.26c-1.86,51.6-.54,73.21-.39,133.29a12.3,12.3,0,0,0,9.83,12.07c93.33,18.47,113.2,88,118.18,117.28,1.32,7.75,9.8,12.5,17.6,12.54,26.07.16,104.12,0,130.4-1.86,5.35-.38,8.52-4.75,8.89-10.14,3.21-47.3-46.34-253-270-275.89A13.19,13.19,0,0,0,13.14,22.26Z"/><path class="cls-49" d="M13.4,22.44C11.55,74,12.87,95.54,13,155.53a12.28,12.28,0,0,0,9.82,12.06c93.17,18.44,113,87.86,118,117.1,1.32,7.74,9.79,12.48,17.57,12.52,26,.16,103.94,0,130.17-1.86,5.34-.38,8.51-4.74,8.87-10.12C300.63,238,251.17,32.63,27.85,9.77A13.17,13.17,0,0,0,13.4,22.44Z"/><path class="cls-50" d="M13.66,22.63c-1.85,51.44-.53,73-.39,132.88a12.26,12.26,0,0,0,9.8,12c93,18.41,112.81,87.73,117.77,116.92,1.31,7.73,9.77,12.46,17.54,12.5,26,.16,103.76,0,129.95-1.85,5.33-.38,8.49-4.73,8.86-10.1C300.39,237.85,251,32.8,28.09,10A13.14,13.14,0,0,0,13.66,22.63Z"/><path class="cls-51" d="M13.92,22.81c-1.85,51.36-.53,72.87-.39,132.67a12.24,12.24,0,0,0,9.78,12c92.84,18.38,112.61,87.59,117.56,116.73,1.31,7.71,9.75,12.44,17.51,12.48,25.93.16,103.58,0,129.72-1.85,5.32-.38,8.48-4.73,8.84-10.09C300.15,237.7,250.86,33,28.32,10.17A13.12,13.12,0,0,0,13.92,22.81Z"/><path class="cls-52" d="M14.17,23c-1.85,51.28-.53,72.76-.39,132.46a12.22,12.22,0,0,0,9.76,12C116.23,185.81,136,254.91,140.91,284c1.31,7.7,9.73,12.42,17.48,12.46,25.89.16,103.4,0,129.5-1.85,5.31-.38,8.46-4.72,8.83-10.07,3.19-47-46-251.43-268.17-274.18A13.1,13.1,0,0,0,14.17,23Z"/><path class="cls-53" d="M14.43,23.17c-1.84,51.2-.53,72.64-.39,132.26a12.2,12.2,0,0,0,9.75,12C116.31,185.74,136,254.73,140.95,283.78c1.31,7.69,9.72,12.4,17.45,12.45,25.84.16,103.22,0,129.27-1.84,5.3-.38,8.45-4.71,8.81-10.06,3.19-46.93-45.94-251-267.7-273.75A13.08,13.08,0,0,0,14.43,23.17Z"/><path class="cls-54" d="M14.69,23.36c-1.84,51.12-.53,72.53-.39,132.05a12.18,12.18,0,0,0,9.73,12c92.36,18.3,112,87.18,117,116.19,1.3,7.68,9.7,12.38,17.42,12.43,25.8.16,103,0,129-1.84,5.29-.38,8.43-4.7,8.8-10C299.43,237.24,250.39,33.46,29,10.78A13.06,13.06,0,0,0,14.69,23.36Z"/><path class="cls-55" d="M14.94,23.54c-1.84,51-.53,72.42-.39,131.84a12.16,12.16,0,0,0,9.71,11.94c92.2,18.27,111.83,87,116.75,116,1.3,7.67,9.68,12.36,17.39,12.41,25.75.15,102.86,0,128.82-1.84,5.28-.38,8.42-4.7,8.78-10C299.19,237.09,250.24,33.63,29.25,11A13,13,0,0,0,14.94,23.54Z"/><path class="cls-56" d="M15.2,23.72c-1.83,51-.53,72.3-.39,131.64a12.14,12.14,0,0,0,9.7,11.92c92,18.24,111.63,86.91,116.54,115.83,1.3,7.65,9.67,12.34,17.36,12.39,25.71.15,102.68,0,128.6-1.83,5.27-.38,8.4-4.69,8.76-10,3.17-46.72-45.7-249.86-266.3-272.47A13,13,0,0,0,15.2,23.72Z"/><path class="cls-57" d="M15.46,23.9c-1.83,50.88-.53,72.19-.38,131.43a12.12,12.12,0,0,0,9.68,11.91C116.63,185.45,136.19,254,141.09,282.88c1.3,7.64,9.65,12.32,17.33,12.37,25.66.15,102.5,0,128.37-1.83,5.26-.37,8.39-4.68,8.75-10,3.16-46.64-45.62-249.46-265.84-272A13,13,0,0,0,15.46,23.9Z"/><path class="cls-58" d="M15.72,24.09c-1.83,50.8-.53,72.07-.38,131.22A12.1,12.1,0,0,0,25,167.2c91.71,18.18,111.24,86.63,116.14,115.46,1.3,7.63,9.63,12.3,17.3,12.35,25.62.15,102.32,0,128.15-1.83,5.25-.37,8.37-4.67,8.73-10,3.16-46.57-45.54-249.07-265.37-271.61A13,13,0,0,0,15.72,24.09Z"/><path class="cls-59" d="M16,24.27c-1.82,50.72-.52,72-.38,131a12.08,12.08,0,0,0,9.65,11.87c91.55,18.16,111,86.5,115.93,115.28,1.29,7.62,9.62,12.28,17.27,12.33,25.57.15,102.14,0,127.92-1.83,5.24-.37,8.36-4.67,8.72-10,3.15-46.5-45.46-248.68-264.9-271.19A13,13,0,0,0,16,24.27Z"/><path class="cls-60" d="M16.23,24.45c-1.82,50.64-.52,71.85-.38,130.81a12.06,12.06,0,0,0,9.63,11.85c91.39,18.13,110.85,86.36,115.73,115.1,1.29,7.61,9.6,12.26,17.24,12.31,25.53.15,102,0,127.7-1.82,5.23-.37,8.34-4.66,8.7-9.95C298,236.33,249.47,34.46,30.41,12A12.92,12.92,0,0,0,16.23,24.45Z"/><path class="cls-61" d="M16.49,24.63C14.67,75.2,16,96.37,16.1,155.24a12,12,0,0,0,9.61,11.83c91.23,18.1,110.65,86.23,115.52,114.92,1.29,7.59,9.58,12.24,17.21,12.29,25.48.15,101.78,0,127.47-1.82,5.23-.37,8.33-4.65,8.69-9.93,3.14-46.35-45.3-247.9-264-270.33A12.9,12.9,0,0,0,16.49,24.63Z"/><path class="cls-62" d="M16.74,24.81c-1.81,50.48-.52,71.62-.38,130.4A12,12,0,0,0,26,167C117,185.1,136.42,253.11,141.28,281.76c1.29,7.58,9.57,12.22,17.18,12.27,25.44.15,101.6,0,127.25-1.82,5.22-.37,8.32-4.64,8.67-9.92,3.14-46.28-45.22-247.5-263.5-269.9A12.88,12.88,0,0,0,16.74,24.81Z"/><path class="cls-63" d="M17,25c-1.81,50.4-.52,71.51-.38,130.19A12,12,0,0,0,26.2,167c90.91,18,110.26,86,115.11,114.55,1.28,7.57,9.55,12.21,17.15,12.25,25.39.15,101.42,0,127-1.81,5.21-.37,8.3-4.64,8.66-9.9C297.27,235.87,249,35,31.1,12.6A12.86,12.86,0,0,0,17,25Z"/><path class="cls-64" d="M17.26,25.18c-1.81,50.32-.52,71.39-.38,130a12,12,0,0,0,9.56,11.77c90.75,18,110.07,85.82,114.91,114.37,1.28,7.56,9.53,12.19,17.12,12.23,25.35.15,101.24,0,126.8-1.81,5.2-.37,8.29-4.63,8.64-9.88C297,235.72,248.85,35.13,31.33,12.8A12.84,12.84,0,0,0,17.26,25.18Z"/><path class="cls-65" d="M17.51,25.36c-1.8,50.24-.52,71.28-.38,129.78a12,12,0,0,0,9.54,11.76c90.59,18,109.87,85.68,114.71,114.19,1.28,7.55,9.51,12.17,17.09,12.21,25.3.15,101.06,0,126.57-1.81,5.19-.37,8.27-4.62,8.63-9.87,3.12-46.06-45-246.33-262.1-268.62A12.81,12.81,0,0,0,17.51,25.36Z"/><path class="cls-66" d="M17.77,25.54c-1.8,50.16-.52,71.17-.38,129.57a12,12,0,0,0,9.53,11.74c90.42,18,109.68,85.54,114.5,114,1.28,7.53,9.5,12.15,17.06,12.19,25.26.15,100.88,0,126.34-1.81,5.18-.37,8.26-4.61,8.61-9.85,3.11-46-44.89-245.94-261.64-268.19A12.79,12.79,0,0,0,17.77,25.54Z"/><path class="cls-67" d="M18,25.73c-1.8,50.08-.52,71.05-.38,129.37a11.93,11.93,0,0,0,9.51,11.72c90.26,17.93,109.48,85.41,114.3,113.83,1.27,7.52,9.48,12.13,17,12.17,25.21.15,100.7,0,126.12-1.8,5.17-.37,8.24-4.61,8.6-9.84C296.31,235.26,248.39,35.63,32,13.4A12.77,12.77,0,0,0,18,25.73Z"/><path class="cls-68" d="M18.29,25.91c-1.8,50-.52,70.94-.38,129.16a11.91,11.91,0,0,0,9.49,11.7C117.5,184.67,136.69,252,141.5,280.41c1.27,7.51,9.46,12.11,17,12.15,25.17.15,100.52,0,125.89-1.8,5.16-.37,8.23-4.6,8.58-9.82,3.1-45.84-44.73-245.15-260.7-267.34A12.75,12.75,0,0,0,18.29,25.91Z"/><path class="cls-69" d="M18.54,26.09C16.75,76,18,96.92,18.17,155a11.89,11.89,0,0,0,9.48,11.68c89.94,17.87,109.09,85.13,113.89,113.46,1.27,7.5,9.45,12.09,17,12.13,25.12.15,100.34,0,125.67-1.8,5.15-.37,8.21-4.59,8.56-9.81C295.83,235,248.08,36,32.49,13.81A12.73,12.73,0,0,0,18.54,26.09Z"/><path class="cls-70" d="M18.8,26.27C17,76.12,18.29,97,18.42,155a11.87,11.87,0,0,0,9.46,11.66c89.78,17.84,108.89,85,113.69,113.28,1.27,7.49,9.43,12.07,16.94,12.11,25.08.15,100.16,0,125.44-1.79,5.14-.37,8.2-4.59,8.55-9.79C295.59,234.8,247.92,36.13,32.73,14A12.7,12.7,0,0,0,18.8,26.27Z"/><path class="cls-71" d="M19.06,26.46c-1.79,49.76-.51,70.6-.38,128.54a11.85,11.85,0,0,0,9.44,11.64c89.62,17.81,108.7,84.86,113.48,113.1,1.27,7.47,9.41,12.05,16.9,12.1,25,.15,100,0,125.22-1.79,5.13-.37,8.18-4.58,8.53-9.77,3.09-45.62-44.49-244-259.3-266.05A12.68,12.68,0,0,0,19.06,26.46Z"/><path class="cls-72" d="M19.31,26.64C17.53,76.32,18.8,97.12,18.94,155a11.83,11.83,0,0,0,9.43,11.63c89.46,17.78,108.5,84.73,113.28,112.92,1.26,7.46,9.4,12,16.87,12.08,25,.15,99.8,0,125-1.79,5.12-.37,8.17-4.57,8.52-9.76C295.11,234.5,247.61,36.46,33.19,14.41A12.66,12.66,0,0,0,19.31,26.64Z"/><path class="cls-73" d="M19.57,26.82c-1.78,49.6-.51,70.37-.37,128.13a11.81,11.81,0,0,0,9.41,11.61c89.3,17.75,108.31,84.59,113.07,112.74,1.26,7.45,9.38,12,16.84,12.06,24.94.15,99.62,0,124.77-1.79,5.11-.37,8.15-4.56,8.5-9.74,3.08-45.47-44.33-243.19-258.37-265.2A12.64,12.64,0,0,0,19.57,26.82Z"/><path class="cls-74" d="M19.83,27c-1.78,49.52-.51,70.26-.37,127.92a11.79,11.79,0,0,0,9.39,11.59C118,184.24,137,251,141.71,279.06c1.26,7.44,9.36,12,16.81,12,24.9.15,99.44,0,124.54-1.78,5.11-.36,8.14-4.56,8.49-9.73,3.07-45.4-44.25-242.8-257.9-264.77A12.62,12.62,0,0,0,19.83,27Z"/><path class="cls-75" d="M20.09,27.18c-1.77,49.44-.51,70.15-.37,127.71a11.77,11.77,0,0,0,9.37,11.57c89,17.7,107.92,84.32,112.66,112.37,1.26,7.43,9.34,12,16.78,12,24.85.15,99.26,0,124.32-1.78,5.1-.36,8.12-4.55,8.47-9.71C294.39,234,247.15,37,33.89,15A12.59,12.59,0,0,0,20.09,27.18Z"/><path class="cls-76" d="M20.34,27.37c-1.77,49.36-.51,70-.37,127.51a11.75,11.75,0,0,0,9.36,11.55C118.14,184.09,137,250.6,141.79,278.61c1.25,7.41,9.33,12,16.75,12,24.81.15,99.08,0,124.09-1.78,5.09-.36,8.11-4.54,8.46-9.7,3.06-45.25-44.09-242-257-263.92A12.57,12.57,0,0,0,20.34,27.37Z"/><path class="cls-77" d="M20.6,27.55c-1.77,49.28-.51,69.92-.37,127.3a11.73,11.73,0,0,0,9.34,11.53c88.65,17.64,107.53,84,112.26,112,1.25,7.4,9.31,11.93,16.72,12,24.76.15,98.9,0,123.87-1.77,5.08-.36,8.09-4.53,8.44-9.68,3.05-45.18-44-241.62-256.5-263.49A12.55,12.55,0,0,0,20.6,27.55Z"/><path class="cls-78" d="M20.86,27.73c-1.76,49.2-.51,69.81-.37,127.09a11.71,11.71,0,0,0,9.32,11.51c88.49,17.61,107.33,83.91,112.05,111.83,1.25,7.39,9.29,11.91,16.69,12,24.72.15,98.72,0,123.64-1.77,5.07-.36,8.08-4.53,8.43-9.66,3-45.1-43.93-241.23-256-263.06A12.53,12.53,0,0,0,20.86,27.73Z"/><path class="cls-79" d="M21.11,27.91C19.35,77,20.61,97.61,20.74,154.8A11.69,11.69,0,0,0,30,166.29c88.33,17.58,107.13,83.77,111.85,111.64,1.25,7.38,9.28,11.9,16.66,11.94,24.67.15,98.54,0,123.42-1.77,5.06-.36,8.06-4.52,8.41-9.65,3-45-43.85-240.84-255.57-262.63A12.51,12.51,0,0,0,21.11,27.91Z"/><path class="cls-80" d="M21.37,28.1c-1.76,49-.51,69.58-.37,126.68a11.67,11.67,0,0,0,9.29,11.48c88.17,17.55,106.94,83.63,111.64,111.46,1.25,7.37,9.26,11.88,16.63,11.92,24.63.15,98.36,0,123.19-1.77,5-.36,8.05-4.51,8.4-9.63,3-45-43.77-240.45-255.1-262.21A12.48,12.48,0,0,0,21.37,28.1Z"/><path class="cls-81" d="M21.63,28.28c-1.75,49-.5,69.46-.37,126.47a11.65,11.65,0,0,0,9.27,11.46c88,17.53,106.74,83.5,111.44,111.28,1.24,7.35,9.24,11.86,16.6,11.9,24.58.15,98.18,0,123-1.76,5-.36,8-4.5,8.38-9.62,3-44.88-43.69-240.05-254.64-261.78A12.46,12.46,0,0,0,21.63,28.28Z"/><path class="cls-82" d="M21.88,28.46c-1.75,48.88-.5,69.35-.37,126.27a11.63,11.63,0,0,0,9.26,11.44c87.84,17.5,106.55,83.36,111.24,111.1,1.24,7.34,9.23,11.84,16.57,11.88,24.54.15,98,0,122.74-1.76,5-.36,8-4.5,8.37-9.6,3-44.81-43.61-239.66-254.17-261.35A12.44,12.44,0,0,0,21.88,28.46Z"/><path class="cls-83" d="M22.14,28.64c-1.75,48.8-.5,69.24-.37,126.06A11.61,11.61,0,0,0,31,166.12C118.7,183.59,137.36,249.35,142,277c1.24,7.33,9.21,11.82,16.54,11.86,24.49.15,97.82,0,122.51-1.76,5-.36,8-4.49,8.35-9.59,3-44.74-43.53-239.27-253.7-260.92A12.42,12.42,0,0,0,22.14,28.64Z"/><path class="cls-84" d="M22.4,28.83c-1.74,48.72-.5,69.12-.37,125.85a11.59,11.59,0,0,0,9.22,11.4c87.52,17.44,106.16,83.09,110.83,110.74,1.24,7.32,9.19,11.8,16.51,11.84,24.45.15,97.64,0,122.29-1.75,5-.36,8-4.48,8.33-9.57,3-44.66-43.45-238.88-253.24-260.49A12.4,12.4,0,0,0,22.4,28.83Z"/><path class="cls-85" d="M22.66,29c-1.74,48.64-.5,69-.37,125.65A11.57,11.57,0,0,0,31.49,166c87.36,17.41,106,83,110.62,110.55,1.23,7.31,9.18,11.78,16.48,11.82,24.4.15,97.46,0,122.06-1.75,5-.36,8-4.47,8.32-9.55C292,232.52,245.61,38.62,36.21,17A12.37,12.37,0,0,0,22.66,29Z"/><path class="cls-86" d="M22.91,29.19c-1.74,48.56-.5,68.9-.37,125.44A11.55,11.55,0,0,0,31.74,166c87.2,17.38,105.76,82.82,110.42,110.37,1.23,7.29,9.16,11.76,16.45,11.8,24.36.15,97.28,0,121.84-1.75,5-.36,8-4.47,8.3-9.54,3-44.52-43.29-238.09-252.31-259.64A12.35,12.35,0,0,0,22.91,29.19Z"/><path class="cls-87" d="M23.17,29.37c-1.73,48.48-.5,68.78-.36,125.23A11.53,11.53,0,0,0,32,166c87,17.35,105.57,82.68,110.21,110.19,1.23,7.28,9.14,11.74,16.42,11.78,24.31.15,97.1,0,121.61-1.75,5-.36,7.95-4.46,8.29-9.52,3-44.44-43.21-237.7-251.84-259.21A12.33,12.33,0,0,0,23.17,29.37Z"/><path class="cls-88" d="M23.43,29.55c-1.73,48.4-.5,68.67-.36,125a11.52,11.52,0,0,0,9.15,11.33c86.88,17.33,105.37,82.54,110,110,1.23,7.27,9.12,11.72,16.39,11.76,24.27.15,96.92,0,121.39-1.74,5-.36,7.93-4.45,8.27-9.51,3-44.37-43.13-237.31-251.37-258.78A12.31,12.31,0,0,0,23.43,29.55Z"/><path class="cls-89" d="M23.68,29.74c-1.73,48.32-.5,68.56-.36,124.82a11.5,11.5,0,0,0,9.14,11.31c86.72,17.3,105.18,82.41,109.81,109.83,1.22,7.26,9.11,11.7,16.36,11.75,24.22.15,96.74,0,121.16-1.74,5-.36,7.92-4.45,8.26-9.49C291,231.91,245,39.29,37.14,17.85A12.29,12.29,0,0,0,23.68,29.74Z"/><path class="cls-90" d="M23.94,29.92c-1.72,48.24-.5,68.44-.36,124.61a11.48,11.48,0,0,0,9.12,11.29c86.55,17.27,105,82.27,109.6,109.64,1.22,7.25,9.09,11.68,16.33,11.73,24.18.15,96.56,0,120.94-1.74,5-.36,7.9-4.44,8.24-9.48,3-44.22-43-236.52-250.44-257.93A12.27,12.27,0,0,0,23.94,29.92Z"/><path class="cls-91" d="M24.2,30.1c-1.72,48.16-.5,68.33-.36,124.41a11.46,11.46,0,0,0,9.1,11.27c86.39,17.24,104.79,82.13,109.4,109.46,1.22,7.23,9.07,11.66,16.3,11.71,24.13.15,96.38,0,120.71-1.73,4.95-.35,7.89-4.43,8.23-9.46,3-44.15-42.89-236.13-250-257.5A12.24,12.24,0,0,0,24.2,30.1Z"/><path class="cls-92" d="M24.46,30.28c-1.72,48.08-.49,68.22-.36,124.2a11.44,11.44,0,0,0,9.09,11.25c86.23,17.21,104.59,82,109.19,109.28,1.22,7.22,9.06,11.64,16.27,11.69,24.09.15,96.2,0,120.49-1.73,4.94-.35,7.87-4.42,8.21-9.44,3-44.08-42.81-235.74-249.51-257.07A12.22,12.22,0,0,0,24.46,30.28Z"/><path class="cls-93" d="M24.71,30.47c-1.71,48-.49,68.1-.36,124a11.42,11.42,0,0,0,9.07,11.23c86.07,17.18,104.4,81.86,109,109.1,1.22,7.21,9,11.62,16.24,11.67,24,.15,96,0,120.26-1.73,4.93-.35,7.86-4.42,8.2-9.43,3-44-42.73-235.35-249-256.65A12.2,12.2,0,0,0,24.71,30.47Z"/><path class="cls-94" d="M25,30.65c-1.71,47.92-.49,68-.36,123.79a11.4,11.4,0,0,0,9.05,11.21c85.91,17.15,104.2,81.72,108.78,108.92,1.21,7.2,9,11.6,16.21,11.65,24,.15,95.84,0,120-1.73,4.92-.35,7.84-4.41,8.18-9.41,3-43.93-42.65-235-248.57-256.22A12.18,12.18,0,0,0,25,30.65Z"/><path class="cls-95" d="M25.23,30.83c-1.71,47.84-.49,67.88-.36,123.58a11.38,11.38,0,0,0,9,11.19c85.75,17.12,104,81.59,108.58,108.74,1.21,7.19,9,11.59,16.17,11.63,24,.15,95.66,0,119.81-1.72,4.91-.35,7.83-4.4,8.17-9.4,3-43.86-42.57-234.56-248.11-255.79A12.16,12.16,0,0,0,25.23,30.83Z"/><path class="cls-96" d="M25.48,31c-1.71,47.76-.49,67.76-.36,123.37a11.36,11.36,0,0,0,9,11.18C119.73,182.66,138,247,142.52,274.12c1.21,7.17,9,11.57,16.14,11.61,23.91.14,95.48,0,119.59-1.72,4.9-.35,7.81-4.39,8.15-9.38,2.95-43.78-42.49-234.17-247.64-255.36A12.13,12.13,0,0,0,25.48,31Z"/><path class="cls-97" d="M25.74,31.2c-1.7,47.68-.49,67.65-.36,123.17a11.34,11.34,0,0,0,9,11.16C119.81,182.59,138,246.83,142.56,273.89c1.21,7.16,9,11.55,16.11,11.59,23.86.14,95.3,0,119.36-1.72,4.89-.35,7.8-4.39,8.14-9.37C289.11,230.69,243.75,40.62,39,19.46A12.11,12.11,0,0,0,25.74,31.2Z"/><path class="cls-98" d="M26,31.38c-1.7,47.6-.49,67.54-.36,123a11.32,11.32,0,0,0,9,11.14c85.26,17,103.42,81.18,108,108.19,1.2,7.15,9,11.53,16.08,11.57,23.82.14,95.12,0,119.13-1.71,4.88-.35,7.79-4.38,8.12-9.35C288.87,230.54,243.6,40.79,39.22,19.67A12.09,12.09,0,0,0,26,31.38Z"/><path class="cls-99" d="M26.26,31.56c-1.7,47.52-.49,67.42-.36,122.75a11.3,11.3,0,0,0,9,11.12c85.1,17,103.22,81,107.76,108,1.2,7.14,8.94,11.51,16.05,11.55,23.77.14,94.94,0,118.91-1.71,4.87-.35,7.77-4.37,8.1-9.33,2.93-43.56-42.25-233-246.24-254.08A12.07,12.07,0,0,0,26.26,31.56Z"/><path class="cls-100" d="M26.51,31.74c-1.69,47.44-.49,67.31-.36,122.55a11.28,11.28,0,0,0,8.95,11.1c84.94,17,103,80.91,107.56,107.83,1.2,7.13,8.92,11.49,16,11.53,23.73.14,94.76,0,118.68-1.71,4.87-.35,7.76-4.36,8.09-9.32,2.93-43.49-42.17-232.6-245.77-253.65A12,12,0,0,0,26.51,31.74Z"/><path class="cls-101" d="M26.77,31.92c-1.69,47.36-.49,67.2-.35,122.34a11.26,11.26,0,0,0,8.93,11.08c84.78,17,102.83,80.77,107.36,107.65,1.2,7.11,8.9,11.47,16,11.51,23.68.14,94.58,0,118.46-1.71,4.86-.35,7.74-4.36,8.07-9.3,2.92-43.42-42.09-232.21-245.31-253.23A12,12,0,0,0,26.77,31.92Z"/><path class="cls-102" d="M27,32.11c-1.69,47.28-.49,67.08-.35,122.13a11.24,11.24,0,0,0,8.92,11.06c84.62,16.92,102.64,80.63,107.15,107.46,1.2,7.1,8.89,11.45,16,11.49,23.64.14,94.4,0,118.23-1.7,4.85-.35,7.73-4.35,8.06-9.29,2.91-43.34-42-231.82-244.84-252.8A12,12,0,0,0,27,32.11Z"/><path class="cls-103" d="M27.28,32.29c-1.68,47.2-.48,67-.35,121.93a11.22,11.22,0,0,0,8.9,11c84.46,16.9,102.44,80.5,106.95,107.28C144,279.63,151.65,284,158.71,284c23.59.14,94.22,0,118-1.7,4.84-.35,7.71-4.34,8-9.27,2.91-43.27-41.93-231.43-244.37-252.37A12,12,0,0,0,27.28,32.29Z"/><path class="cls-104" d="M27.54,32.47c-1.68,47.12-.48,66.85-.35,121.72a11.2,11.2,0,0,0,8.88,11c84.3,16.87,102.24,80.36,106.74,107.1,1.19,7.08,8.85,11.41,15.9,11.45,23.55.14,94,0,117.78-1.7,4.83-.35,7.7-4.34,8-9.26,2.9-43.2-41.85-231-243.91-251.94A12,12,0,0,0,27.54,32.47Z"/></g></g></svg>