<svg xmlns="http://www.w3.org/2000/svg" viewBox="0 0 308.83 308.98"><defs><style>.cls-1{fill:#cc0;}.cls-2{fill:#cdcd00;}.cls-3{fill:#cece00;}.cls-4{fill:#cfcf00;}.cls-5{fill:#d0d000;}.cls-6{fill:#d1d100;}.cls-7{fill:#d2d200;}.cls-8{fill:#d3d300;}.cls-9{fill:#d4d400;}.cls-10{fill:#d5d500;}.cls-11{fill:#d6d600;}.cls-12{fill:#d7d700;}.cls-13{fill:#d8d800;}.cls-14{fill:#d9d900;}.cls-15{fill:#dada00;}.cls-16{fill:#dbdb00;}.cls-17{fill:#dcdc00;}.cls-18{fill:#dd0;}.cls-19{fill:#dede00;}.cls-20{fill:#dfdf00;}.cls-21{fill:#e0e000;}.cls-22{fill:#e1e100;}.cls-23{fill:#e2e200;}.cls-24{fill:#e3e300;}.cls-25{fill:#e4e400;}.cls-26{fill:#e5e500;}.cls-27{fill:#e6e600;}.cls-28{fill:#e7e700;}.cls-29{fill:#e8e800;}.cls-30{fill:#e9e900;}.cls-31{fill:#eaea00;}.cls-32{fill:#ebeb00;}.cls-33{fill:#ecec00;}.cls-34{fill:#eded00;}.cls-35{fill:#ee0;}.cls-36{fill:#efef00;}.cls-37{fill:#f0f000;}.cls-38{fill:#f1f100;}.cls-39{fill:#f2f200;}.cls-40{fill:#f3f300;}.cls-41{fill:#f4f400;}.cls-42{fill:#f5f500;}.cls-43{fill:#f6f600;}.cls-44{fill:#f7f700;}.cls-45{fill:#f8f800;}.cls-46{fill:#f9f900;}.cls-47{fill:#fafa00;}.cls-48{fill:#fbfb00;}.cls-49{fill:#fcfc00;}.cls-50{fill:#fdfd00;}.cls-51{fill:#fefe00;}.cls-52{fill:#ff0;}</style></defs><title>Asset 11</title><g id="Layer_2" data-name="Layer 2"><g id="Layer_2-2" data-name="Layer 2"><path class="cls-1" d="M307.77,295.29c2-55.36.58-78.54.42-143a13.22,13.22,0,0,0-10.63-13C196.66,119.51,175.17,44.92,169.79,13.51,168.36,5.19,159.19.1,150.75.05,122.57-.12,38.18,0,9.76,2,4,2.45.55,7.14.16,12.92c-3.48,50.75,50.1,271.42,292,296A14.22,14.22,0,0,0,307.77,295.29Z"/><path class="cls-2" d="M307.26,294.92c2-55.2.58-78.32.42-142.59a13.18,13.18,0,0,0-10.6-12.92C196.5,119.66,175.08,45.28,169.72,14,168.29,5.66,159.15.58,150.74.53c-28.1-.17-112.22,0-140.54,2C4.44,2.93,1,7.6.62,13.36-2.84,64,50.56,284,291.66,308.51A14.18,14.18,0,0,0,307.26,294.92Z"/><path class="cls-3" d="M306.75,294.56c2-55,.57-78.09.42-142.18a13.14,13.14,0,0,0-10.56-12.88C196.34,119.8,175,45.63,169.64,14.4,168.23,6.13,159.11,1.07,150.73,1c-28-.17-111.86,0-140.1,2-5.74.41-9.16,5.06-9.55,10.81C-2.37,64.27,50.87,283.68,291.2,308.11A14.13,14.13,0,0,0,306.75,294.56Z"/><path class="cls-4" d="M306.24,294.2c2-54.89.57-77.87.42-141.77a13.1,13.1,0,0,0-10.53-12.84C196.18,119.94,174.9,46,169.57,14.84,168.16,6.6,159.07,1.55,150.72,1.5c-27.92-.17-111.51,0-139.65,2-5.72.4-9.13,5-9.52,10.78C-1.89,64.57,51.17,283.35,290.74,307.71A14.09,14.09,0,0,0,306.24,294.2Z"/><path class="cls-5" d="M305.73,293.84c2-54.73.57-77.64.42-141.36a13.06,13.06,0,0,0-10.5-12.81C196,120.08,174.81,46.34,169.5,15.29,168.09,7.07,159,2,150.71,2,122.88,1.82,39.56,2,11.5,4,5.79,4.36,2.4,9,2,14.7-1.42,64.87,51.48,283,290.28,307.31A14,14,0,0,0,305.73,293.84Z"/><path class="cls-6" d="M305.22,293.48c2-54.57.57-77.42.42-141a13,13,0,0,0-10.46-12.77c-99.31-19.53-120.45-93.06-125.75-124C168,7.54,159,2.52,150.69,2.47,123,2.3,39.9,2.46,11.93,4.43c-5.69.4-9.07,5-9.46,10.72-3.42,50,49.31,267.54,287.34,291.75A14,14,0,0,0,305.22,293.48Z"/><path class="cls-7" d="M304.72,293.12c2-54.41.57-77.19.41-140.55a13,13,0,0,0-10.43-12.73c-99-19.48-120.06-92.79-125.35-123.66C168,8,159,3,150.68,3c-27.65-.17-110.44,0-138.31,2-5.67.4-9,5-9.43,10.69C-.47,65.47,52.09,282.36,289.36,306.5A14,14,0,0,0,304.72,293.12Z"/><path class="cls-8" d="M304.21,292.76c2-54.25.57-77,.41-140.14a13,13,0,0,0-10.4-12.69c-98.67-19.42-119.68-92.52-124.94-123.3-1.39-8.15-10.36-13.14-18.61-13.19-27.56-.16-110.08,0-137.87,2-5.65.4-9,5-9.4,10.66C0,65.78,52.4,282,288.9,306.1A13.92,13.92,0,0,0,304.21,292.76Z"/><path class="cls-9" d="M303.7,292.4c2-54.1.56-76.74.41-139.73A12.91,12.91,0,0,0,293.75,140C195.4,120.65,174.46,47.76,169.21,17.07,167.82,8.94,158.88,4,150.66,3.92c-27.47-.16-109.72,0-137.42,1.95-5.63.4-9,5-9.37,10.62C.48,66.08,52.7,281.7,288.44,305.7A13.87,13.87,0,0,0,303.7,292.4Z"/><path class="cls-10" d="M303.19,292c2-53.94.56-76.52.41-139.32a12.87,12.87,0,0,0-10.33-12.62c-98-19.31-118.9-92-124.13-122.58-1.38-8.1-10.3-13.06-18.49-13.11-27.38-.16-109.37,0-137,1.94-5.61.4-9,5-9.34,10.59C1,66.38,53,281.37,288,305.3A13.83,13.83,0,0,0,303.19,292Z"/><path class="cls-11" d="M302.68,291.67c1.95-53.78.56-76.3.41-138.91a12.83,12.83,0,0,0-10.29-12.58C195.08,120.93,174.28,48.47,169.06,18c-1.38-8.08-10.26-13-18.43-13.07-27.29-.16-109,0-136.53,1.94-5.6.4-8.92,4.95-9.31,10.56C1.44,66.68,53.31,281,287.52,304.9A13.79,13.79,0,0,0,302.68,291.67Z"/><path class="cls-12" d="M302.17,291.31c1.94-53.62.56-76.07.41-138.5a12.79,12.79,0,0,0-10.26-12.55C194.92,121.07,174.19,48.83,169,18.4c-1.38-8.05-10.23-13-18.37-13C123.42,5.21,42,5.36,14.54,7.3,9,7.7,5.65,12.24,5.26,17.83,1.91,67,53.62,280.71,287.06,304.5A13.74,13.74,0,0,0,302.17,291.31Z"/><path class="cls-13" d="M301.66,291c1.93-53.46.56-75.85.41-138.09a12.75,12.75,0,0,0-10.23-12.51C194.77,121.22,174.1,49.19,168.92,18.85c-1.37-8-10.2-12.95-18.31-13C123.49,5.69,42.31,5.85,15,7.78c-5.56.39-8.86,4.92-9.24,10.5-3.34,49,48.2,262.1,280.87,285.82A13.7,13.7,0,0,0,301.66,291Z"/><path class="cls-14" d="M301.15,290.59c1.93-53.3.55-75.62.41-137.68a12.72,12.72,0,0,0-10.19-12.47C194.61,121.36,174,49.54,168.85,19.3c-1.37-8-10.16-12.91-18.25-13-27-.16-107.94,0-135.19,1.92-5.54.39-8.83,4.9-9.21,10.47-3.33,48.86,48,261.33,279.95,285A13.66,13.66,0,0,0,301.15,290.59Z"/><path class="cls-15" d="M300.64,290.23c1.92-53.14.55-75.4.4-137.27a12.68,12.68,0,0,0-10.16-12.43c-96.43-19-117-90.63-122.11-120.78-1.36-8-10.13-12.87-18.19-12.92C123.65,6.66,43,6.81,15.84,8.74,10.32,9.13,7,13.63,6.66,19.17c-3.32,48.71,47.88,260.55,279,284.13A13.61,13.61,0,0,0,300.64,290.23Z"/><path class="cls-16" d="M300.13,289.87c1.91-53,.55-75.17.4-136.86a12.64,12.64,0,0,0-10.13-12.4c-96.12-19-116.58-90.36-121.71-120.42-1.36-8-10.09-12.83-18.13-12.88-26.85-.16-107.23,0-134.3,1.91-5.51.39-8.78,4.87-9.15,10.41C3.81,68.19,54.84,279.4,285.22,302.9A13.57,13.57,0,0,0,300.13,289.87Z"/><path class="cls-17" d="M299.62,289.51c1.91-52.83.55-74.95.4-136.45a12.6,12.6,0,0,0-10.09-12.36c-95.8-18.91-116.19-90.09-121.3-120.06-1.35-7.93-10.06-12.79-18.07-12.84-26.76-.16-106.87,0-133.85,1.9-5.49.39-8.75,4.86-9.12,10.38-3.3,48.42,47.56,259,277.18,282.44A13.52,13.52,0,0,0,299.62,289.51Z"/><path class="cls-18" d="M299.11,289.15c1.9-52.67.55-74.72.4-136a12.56,12.56,0,0,0-10.06-12.32C194,121.93,173.65,51,168.56,21.08c-1.35-7.91-10-12.75-18-12.8-26.67-.16-106.52,0-133.4,1.9-5.47.39-8.72,4.85-9.09,10.34C4.76,68.79,55.45,278.74,284.3,302.1A13.48,13.48,0,0,0,299.11,289.15Z"/><path class="cls-19" d="M298.61,288.79c1.9-52.51.55-74.5.4-135.64a12.52,12.52,0,0,0-10-12.29c-95.16-18.8-115.42-89.55-120.49-119.34-1.34-7.89-10-12.72-17.95-12.76-26.58-.16-106.16,0-133,1.89C12.13,11,8.89,15.48,8.52,21,5.24,69.1,55.76,278.41,283.84,301.7A13.44,13.44,0,0,0,298.61,288.79Z"/><path class="cls-20" d="M298.1,288.42c1.89-52.35.54-74.27.4-135.23a12.48,12.48,0,0,0-10-12.25c-94.84-18.74-115-89.28-120.09-119-1.34-7.86-10-12.68-17.89-12.72C124,9.08,44.72,9.23,18,11.13c-5.43.39-8.66,4.82-9,10.28-3.27,48,47.09,256.67,274.4,279.89A13.39,13.39,0,0,0,298.1,288.42Z"/><path class="cls-21" d="M297.59,288.06c1.88-52.19.54-74,.4-134.82A12.44,12.44,0,0,0,288,141C193.51,122.35,173.38,52,168.34,22.41,167,14.57,158.41,9.77,150.51,9.73c-26.4-.16-105.45,0-132.06,1.88-5.41.38-8.63,4.8-9,10.25C6.19,69.7,56.37,277.75,282.93,300.9A13.35,13.35,0,0,0,297.59,288.06Z"/><path class="cls-22" d="M297.08,287.7c1.88-52,.54-73.82.39-134.41a12.4,12.4,0,0,0-9.92-12.18c-94.2-18.63-114.25-88.74-119.28-118.26-1.33-7.81-9.89-12.6-17.77-12.65-26.31-.16-105.09,0-131.62,1.87-5.4.38-8.6,4.79-9,10.22C6.67,70,56.68,277.42,282.47,300.5A13.31,13.31,0,0,0,297.08,287.7Z"/><path class="cls-23" d="M296.57,287.34c1.87-51.88.54-73.6.39-134a12.37,12.37,0,0,0-9.89-12.14C193.19,122.64,173.2,52.74,168.19,23.3c-1.33-7.79-9.86-12.56-17.71-12.61-26.22-.16-104.73,0-131.17,1.87-5.38.38-8.57,4.77-8.94,10.19C7.14,70.3,57,277.09,282,300.1A13.26,13.26,0,0,0,296.57,287.34Z"/><path class="cls-24" d="M296.06,287c1.86-51.72.54-73.37.39-133.59a12.33,12.33,0,0,0-9.86-12.1C193,122.78,173.11,53.09,168.12,23.75,166.8,16,158.3,11.22,150.47,11.18,124.34,11,46.1,11.17,19.75,13c-5.36.38-8.54,4.76-8.91,10.16C7.62,70.6,57.29,276.76,281.55,299.7A13.22,13.22,0,0,0,296.06,287Z"/><path class="cls-25" d="M295.55,286.62c1.86-51.56.53-73.15.39-133.18a12.29,12.29,0,0,0-9.82-12.06C192.88,122.92,173,53.45,168,24.19c-1.32-7.74-9.79-12.49-17.59-12.53-26-.16-104,0-130.28,1.86-5.34.38-8.51,4.74-8.88,10.13C8.09,70.91,57.6,276.43,281.09,299.3A13.18,13.18,0,0,0,295.55,286.62Z"/><path class="cls-26" d="M295,286.26c1.85-51.4.53-72.92.39-132.77a12.25,12.25,0,0,0-9.79-12C192.72,123.06,172.94,53.81,168,24.64c-1.31-7.72-9.76-12.45-17.53-12.49-26-.16-103.67,0-129.83,1.85-5.32.38-8.48,4.73-8.85,10.1C8.57,71.21,57.9,276.1,280.63,298.9A13.13,13.13,0,0,0,295,286.26Z"/><path class="cls-26" d="M294.53,285.9c1.84-51.24.53-72.7.39-132.36a12.21,12.21,0,0,0-9.76-12C192.56,123.2,172.85,54.16,167.9,25.08c-1.31-7.7-9.73-12.41-17.47-12.45-25.87-.16-103.31,0-129.39,1.84-5.3.38-8.46,4.71-8.82,10.06-3.19,47,46,251.23,267.94,274A13.09,13.09,0,0,0,294.53,285.9Z"/><path class="cls-27" d="M294,285.54c1.84-51.09.53-72.47.39-132a12.17,12.17,0,0,0-9.72-12C192.4,123.35,172.76,54.52,167.83,25.53c-1.3-7.67-9.69-12.37-17.41-12.42-25.78-.16-103,0-128.94,1.84-5.29.38-8.43,4.7-8.79,10-3.18,46.83,45.82,250.45,267,273.12A13,13,0,0,0,294,285.54Z"/><path class="cls-28" d="M293.51,285.17c1.83-50.93.53-72.25.39-131.54a12.13,12.13,0,0,0-9.69-11.92C192.25,123.49,172.67,54.87,167.76,26c-1.3-7.65-9.66-12.33-17.35-12.38-25.69-.15-102.6,0-128.49,1.83-5.27.37-8.4,4.68-8.76,10C10,72.11,58.82,275.11,279.25,297.7A13,13,0,0,0,293.51,285.17Z"/><path class="cls-29" d="M293,284.81c1.83-50.77.53-72,.38-131.13a12.09,12.09,0,0,0-9.66-11.88c-91.64-18.17-111.15-86.57-116-115.38-1.29-7.62-9.63-12.29-17.29-12.34-25.6-.15-102.24,0-128,1.83-5.25.37-8.37,4.67-8.73,10-3.16,46.54,45.5,248.9,265.16,271.42A13,13,0,0,0,293,284.81Z"/><path class="cls-30" d="M292.5,284.45c1.82-50.61.52-71.8.38-130.72a12.06,12.06,0,0,0-9.62-11.84c-91.32-18.11-110.77-86.3-115.64-115-1.29-7.6-9.59-12.25-17.23-12.3-25.51-.15-101.88,0-127.6,1.82-5.23.37-8.34,4.66-8.7,9.94C10.95,72.72,59.43,274.45,278.33,296.9A12.91,12.91,0,0,0,292.5,284.45Z"/><path class="cls-31" d="M292,284.09c1.81-50.45.52-71.58.38-130.32a12,12,0,0,0-9.59-11.8c-91-18.06-110.38-86-115.24-114.66C166.26,19.73,158,15.09,150.38,15,125,14.89,48.85,15,23.22,16.86c-5.21.37-8.31,4.64-8.67,9.91C11.42,73,59.74,274.12,277.87,296.5A12.87,12.87,0,0,0,292,284.09Z"/><path class="cls-32" d="M291.48,283.73c1.81-50.29.52-71.35.38-129.91a12,12,0,0,0-9.55-11.77c-90.69-18-110-85.76-114.83-114.3-1.28-7.55-9.52-12.18-17.11-12.22-25.33-.15-101.17,0-126.71,1.81-5.19.37-8.28,4.63-8.64,9.88C11.9,73.32,60,273.79,277.41,296.1A12.83,12.83,0,0,0,291.48,283.73Z"/><path class="cls-33" d="M291,283.37c1.8-50.13.52-71.13.38-129.5a11.94,11.94,0,0,0-9.52-11.73C191.46,124.2,172.22,56.65,167.4,28.2c-1.28-7.53-9.49-12.14-17-12.19-25.24-.15-100.82,0-126.26,1.81-5.18.37-8.25,4.61-8.61,9.85-3.11,46,44.87,245.79,261.47,268A12.78,12.78,0,0,0,291,283.37Z"/><path class="cls-34" d="M290.46,283c1.79-50,.52-70.9.38-129.09a11.9,11.9,0,0,0-9.49-11.69c-90-17.89-109.22-85.22-114-113.58-1.27-7.51-9.46-12.1-17-12.15-25.15-.15-100.46,0-125.82,1.8-5.16.37-8.22,4.6-8.58,9.82-3.1,45.81,44.71,245,260.54,267.19A12.74,12.74,0,0,0,290.46,283Z"/><path class="cls-35" d="M289.95,282.65c1.79-49.82.51-70.68.38-128.68a11.86,11.86,0,0,0-9.45-11.66C191.14,124.48,172,57.36,167.25,29.09,166,21.61,157.83,17,150.33,17,125.26,16.83,50.23,17,25,18.78c-5.14.37-8.19,4.58-8.54,9.78C13.32,74.23,61,272.8,276,294.9A12.7,12.7,0,0,0,289.95,282.65Z"/><path class="cls-36" d="M289.44,282.29c1.78-49.66.51-70.45.37-128.27a11.82,11.82,0,0,0-9.42-11.62C191,124.62,172,57.71,167.18,29.54c-1.26-7.46-9.39-12-16.86-12.07-25-.15-99.75,0-124.92,1.79-5.12.37-8.16,4.57-8.51,9.75C13.8,74.53,61.27,272.47,275.57,294.5A12.65,12.65,0,0,0,289.44,282.29Z"/><path class="cls-37" d="M288.93,281.92c1.77-49.5.51-70.23.37-127.86a11.78,11.78,0,0,0-9.39-11.58C190.83,124.76,171.86,58.07,167.11,30c-1.26-7.43-9.36-12-16.8-12-24.88-.15-99.39,0-124.48,1.78-5.1.36-8.13,4.55-8.48,9.72C14.27,74.83,61.57,272.14,275.11,294.1A12.61,12.61,0,0,0,288.93,281.92Z"/><path class="cls-38" d="M288.42,281.56c1.77-49.34.51-70,.37-127.45a11.75,11.75,0,0,0-9.35-11.55C190.67,124.91,171.77,58.42,167,30.43c-1.25-7.41-9.32-11.95-16.74-12-24.8-.15-99,0-124,1.78-5.08.36-8.11,4.54-8.45,9.69C14.75,75.13,61.88,271.81,274.65,293.7A12.57,12.57,0,0,0,288.42,281.56Z"/><path class="cls-39" d="M287.91,281.2c1.76-49.18.51-69.78.37-127A11.71,11.71,0,0,0,279,142.65C190.51,125,171.68,58.78,167,30.87c-1.25-7.39-9.29-11.91-16.68-12-24.71-.15-98.68,0-123.58,1.77-5.07.36-8.08,4.52-8.42,9.66-3,45.08,43.91,241.13,255.92,263A12.52,12.52,0,0,0,287.91,281.2Z"/><path class="cls-40" d="M287.4,280.84c1.76-49,.51-69.55.37-126.63a11.67,11.67,0,0,0-9.29-11.47c-88.13-17.55-106.89-83.6-111.6-111.42-1.24-7.36-9.26-11.87-16.62-11.92-24.62-.15-98.32,0-123.14,1.77-5,.36-8,4.51-8.39,9.63-3,44.94,43.76,240.36,255,262.11A12.48,12.48,0,0,0,287.4,280.84Z"/><path class="cls-41" d="M286.89,280.48c1.75-48.87.5-69.33.37-126.22A11.63,11.63,0,0,0,278,142.82C190.2,125.33,171.5,59.49,166.82,31.76c-1.24-7.34-9.22-11.83-16.56-11.88-24.53-.15-98,0-122.69,1.76-5,.36-8,4.5-8.36,9.6C16.18,76,62.8,270.82,273.27,292.5A12.44,12.44,0,0,0,286.89,280.48Z"/><path class="cls-42" d="M286.38,280.12c1.74-48.71.5-69.1.37-125.81a11.59,11.59,0,0,0-9.22-11.4C190,125.47,171.41,59.85,166.75,32.21c-1.24-7.32-9.19-11.79-16.5-11.84-24.44-.15-97.61,0-122.25,1.75-5,.36-8,4.48-8.33,9.57-3,44.65,43.44,238.8,253.15,260.41A12.39,12.39,0,0,0,286.38,280.12Z"/><path class="cls-43" d="M285.88,279.76c1.74-48.55.5-68.88.36-125.4A11.55,11.55,0,0,0,277.06,143C189.88,125.62,171.33,60.2,166.67,32.65c-1.23-7.29-9.16-11.76-16.44-11.8-24.35-.15-97.25,0-121.8,1.75-5,.36-8,4.47-8.3,9.54-3,44.5,43.28,238,252.22,259.57A12.35,12.35,0,0,0,285.88,279.76Z"/><path class="cls-44" d="M285.37,279.4c1.73-48.39.5-68.65.36-125a11.51,11.51,0,0,0-9.15-11.32c-86.85-17.32-105.34-82.52-110-110-1.23-7.27-9.12-11.72-16.38-11.76-24.26-.15-96.9,0-121.35,1.74-5,.36-7.93,4.45-8.27,9.5-3,44.36,43.12,237.25,251.3,258.72A12.31,12.31,0,0,0,285.37,279.4Z"/><path class="cls-45" d="M284.86,279c1.72-48.23.5-68.43.36-124.59a11.47,11.47,0,0,0-9.12-11.29c-86.53-17.26-105-82.25-109.57-109.62-1.22-7.24-9.09-11.68-16.32-11.72-24.17-.15-96.54,0-120.91,1.74-5,.36-7.9,4.44-8.24,9.47-3,44.21,43,236.47,250.38,257.87A12.26,12.26,0,0,0,284.86,279Z"/><path class="cls-46" d="M284.35,278.67c1.72-48.07.49-68.2.36-124.18a11.43,11.43,0,0,0-9.08-11.25C189.41,126,171.06,61.27,166.46,34c-1.22-7.22-9.06-11.64-16.26-11.68C126.11,22.16,54,22.3,29.73,24c-4.94.35-7.87,4.42-8.21,9.44-3,44.07,42.8,235.69,249.45,257A12.22,12.22,0,0,0,284.35,278.67Z"/><path class="cls-47" d="M283.84,278.31c1.71-47.92.49-68,.36-123.77a11.4,11.4,0,0,0-9-11.21C189.25,126.18,171,61.62,166.38,34.43c-1.21-7.2-9-11.6-16.2-11.65-24-.15-95.83,0-120,1.73-4.92.35-7.84,4.41-8.18,9.41C19,77.85,64.63,268.84,270.52,290.1A12.18,12.18,0,0,0,283.84,278.31Z"/><path class="cls-48" d="M283.33,278c1.7-47.76.49-67.75.36-123.36a11.36,11.36,0,0,0-9-11.17C189.1,126.33,170.88,62,166.31,34.88c-1.21-7.17-9-11.56-16.14-11.61-23.9-.14-95.47,0-119.57,1.72-4.9.35-7.81,4.39-8.15,9.38C19.5,78.15,64.94,268.51,270.06,289.7A12.13,12.13,0,0,0,283.33,278Z"/><path class="cls-49" d="M282.82,277.59c1.7-47.6.49-67.53.36-122.95a11.32,11.32,0,0,0-9-11.14c-85.26-17-103.41-81.17-108-108.18-1.2-7.15-9-11.53-16.08-11.57C126.34,23.61,55,23.75,31,25.47c-4.88.35-7.78,4.38-8.12,9.35C20,78.45,65.24,268.18,269.6,289.3A12.09,12.09,0,0,0,282.82,277.59Z"/><path class="cls-50" d="M282.31,277.23c1.69-47.44.49-67.3.36-122.54a11.28,11.28,0,0,0-8.95-11.1c-84.94-17-103-80.9-107.55-107.82-1.2-7.12-8.92-11.49-16-11.53-23.72-.14-94.76,0-118.68,1.71-4.86.35-7.76,4.36-8.09,9.32C20.46,78.75,65.55,267.85,269.14,288.9A12,12,0,0,0,282.31,277.23Z"/><path class="cls-51" d="M281.8,276.87c1.69-47.28.49-67.08.35-122.13a11.24,11.24,0,0,0-8.92-11.06C188.62,126.75,170.61,63,166.09,36.22c-1.2-7.1-8.89-11.45-16-11.49-23.64-.14-94.4,0-118.23,1.7-4.85.35-7.73,4.35-8.06,9.29-2.91,43.34,42,231.81,244.83,252.79A12,12,0,0,0,281.8,276.87Z"/><path class="cls-52" d="M281.29,276.51c1.68-47.12.48-66.85.35-121.72a11.2,11.2,0,0,0-8.88-11C188.47,126.89,170.52,63.4,166,36.66c-1.19-7.08-8.85-11.41-15.9-11.45-23.55-.14-94,0-117.78,1.7-4.83.35-7.7,4.34-8,9.26-2.9,43.2,41.85,231,243.91,251.94A12,12,0,0,0,281.29,276.51Z"/></g></g></svg>